<svg width="224" height="112" viewBox="0 0 224 112" fill="none" xmlns="http://www.w3.org/2000/svg">
<path d="M121.831 77.6558H102.143C98.3438 77.6558 95.2352 74.9977 95.2352 71.7489V63.5749H99.8373V71.7489C99.8373 72.8346 100.874 73.7206 102.143 73.7206H121.831C123.101 73.7206 124.137 72.8346 124.137 71.7489V39.0986H128.744V71.7489C128.744 74.9977 125.655 77.6558 121.831 77.6558Z" fill="#A6A6A6"/>
<mask id="mask0_309_776" style="mask-type:luminance" maskUnits="userSpaceOnUse" x="95" y="0" width="34" height="40">
<path d="M95.1914 0.5H128.817V39.5688H95.1914V0.5Z" fill="white"/>
</mask>
<g mask="url(#mask0_309_776)">
<path d="M99.8374 39.0987H95.2352V6.44842C95.2352 3.19546 98.3439 0.537354 102.143 0.537354H121.831C125.636 0.537354 128.744 3.19546 128.744 6.44842V14.6183H124.137V6.44842C124.137 5.36272 123.101 4.47668 121.831 4.47668H102.143C100.874 4.47668 99.8374 5.36272 99.8374 6.44842V39.0987Z" fill="#03989E"/>
</g>
<mask id="mask1_309_776" style="mask-type:luminance" maskUnits="userSpaceOnUse" x="66" y="24" width="47" height="31">
<path d="M66.8585 24.6602H112.627V54.4776H66.8585V24.6602Z" fill="white"/>
</mask>
<g mask="url(#mask1_309_776)">
<path d="M112 53.4334H73.8152C70.0157 53.4334 66.9022 50.7753 66.9022 47.5265V30.6877C66.9022 27.4389 70.0157 24.7808 73.8152 24.7808H83.3698V28.7201H73.8152C72.5454 28.7201 71.5092 29.6061 71.5092 30.6877V47.5265C71.5092 48.6081 72.5454 49.4983 73.8152 49.4983H112V53.4334Z" fill="#03989E"/>
</g>
<path d="M150.184 53.4334H140.629V49.4983H150.184C151.454 49.4983 152.49 48.6081 152.49 47.5265V30.6877C152.49 29.6061 151.454 28.7201 150.184 28.7201H111.999V24.7808H150.184C153.983 24.7808 157.097 27.4389 157.097 30.6877V47.5265C157.097 50.7753 153.983 53.4334 150.184 53.4334Z" fill="#A6A6A6"/>
<path d="M21.3665 111.234H17.2216V102.498H4.14487V111.234H0V90.1519H4.14487V99.3034H17.2216V90.1519H21.3665V111.234Z" fill="#03989E"/>
<path d="M50.7383 93.3466H37.2724V99.0372H49.3178V102.232H37.2724V108.039H51.147V111.234H33.1275V90.1519H50.7383V93.3466Z" fill="#03989E"/>
<path d="M77.4205 106.475H64.9858L62.6118 111.234H58.2918L69.1696 90.1519H73.4313L84.2118 111.234H79.7751L77.4205 106.475ZM75.8248 103.313L71.174 93.9456L66.5231 103.313H75.8248Z" fill="#03989E"/>
<path d="M96.9091 108.006H107.592V111.234H92.7642V90.1519H96.9091V108.006Z" fill="#03989E"/>
<path d="M133.677 93.3466H125.855V111.234H121.69V93.3466H113.906V90.1519H133.677V93.3466Z" fill="#03989E"/>
<path d="M163.876 111.234H159.731V102.498H146.654V111.234H142.509V90.1519H146.654V99.3034H159.731V90.1519H163.876V111.234Z" fill="#03989E"/>
<path d="M174.625 108.089C175.053 107.714 175.583 107.523 176.221 107.523C176.853 107.523 177.379 107.714 177.797 108.089C178.225 108.455 178.439 108.921 178.439 109.486C178.439 110.077 178.225 110.56 177.797 110.934C177.379 111.308 176.853 111.5 176.221 111.5C175.583 111.5 175.053 111.308 174.625 110.934C174.207 110.56 174.002 110.077 174.002 109.486C174.002 108.921 174.207 108.455 174.625 108.089Z" fill="#03989E"/>
<path d="M204.511 106.475H192.077L189.703 111.234H185.383L196.26 90.1519H200.522L211.303 111.234H206.866L204.511 106.475ZM202.916 103.313L198.265 93.9456L193.614 103.313H202.916Z" fill="#03989E"/>
<path d="M224 111.234H219.855V90.1519H224V111.234Z" fill="#03989E"/>
</svg>
