<svg width="150" height="87" viewBox="0 0 150 87" fill="none" xmlns="http://www.w3.org/2000/svg">
<path d="M81.5835 60.4243H68.3995C65.8552 60.4243 63.7735 58.3426 63.7735 55.7983V49.3969H66.8553V55.7983C66.8553 56.6486 67.5492 57.3425 68.3995 57.3425H81.5835C82.4338 57.3425 83.1277 56.6486 83.1277 55.7983V30.2284H86.2128V55.7983C86.2128 58.3426 84.1441 60.4243 81.5835 60.4243Z" fill="#A6A6A6"/>
<mask id="mask0_35_722" style="mask-type:luminance" maskUnits="userSpaceOnUse" x="63" y="0" width="24" height="31">
<path d="M63.7442 -6.10352e-05H86.2616V30.5965H63.7442V-6.10352e-05Z" fill="white"/>
</mask>
<g mask="url(#mask0_35_722)">
<path d="M66.8553 30.2284H63.7735V4.65847C63.7735 2.11092 65.8552 0.0292358 68.3995 0.0292358H81.5835C84.131 0.0292358 86.2127 2.11092 86.2127 4.65847V11.0566H83.1277V4.65847C83.1277 3.8082 82.4338 3.1143 81.5835 3.1143H68.3995C67.5492 3.1143 66.8553 3.8082 66.8553 4.65847V30.2284Z" fill="#03989E"/>
</g>
<mask id="mask1_35_722" style="mask-type:luminance" maskUnits="userSpaceOnUse" x="44" y="18" width="32" height="25">
<path d="M44.7712 18.9208H75.4199V42.2722H44.7712V18.9208Z" fill="white"/>
</mask>
<g mask="url(#mask1_35_722)">
<path d="M74.9997 41.4545H49.4298C46.8855 41.4545 44.8005 39.3729 44.8005 36.8286V23.6413C44.8005 21.097 46.8855 19.0153 49.4298 19.0153H55.8279V22.1004H49.4298C48.5795 22.1004 47.8856 22.7943 47.8856 23.6413V36.8286C47.8856 37.6756 48.5795 38.3727 49.4298 38.3727H74.9997V41.4545Z" fill="#03989E"/>
</g>
<path d="M100.57 41.4545H94.1714V38.3727H100.57C101.42 38.3727 102.114 37.6755 102.114 36.8285V23.6412C102.114 22.7942 101.42 22.1003 100.57 22.1003H74.9997V19.0153H100.57C103.114 19.0153 105.199 21.0969 105.199 23.6412V36.8285C105.199 39.3728 103.114 41.4545 100.57 41.4545Z" fill="#A6A6A6"/>
<path d="M14.3079 86.7206H11.5324V79.8794H2.77558V86.7206H0V70.2105H2.77558V77.3775H11.5324V70.2105H14.3079V86.7206Z" fill="#03989E"/>
<path d="M33.9765 72.7124H24.9591V77.169H33.0253V79.6709H24.9591V84.2187H34.2502V86.7206H22.1836V70.2105H33.9765V72.7124Z" fill="#03989E"/>
<path d="M51.844 82.9938H43.5173L41.9275 86.7206H39.0347L46.3189 70.2105H49.1727L56.3918 86.7206H53.4208L51.844 82.9938ZM50.7755 80.5179L47.6611 73.1815L44.5467 80.5179H50.7755Z" fill="#03989E"/>
<path d="M64.8945 84.1926H72.0485V86.7206H62.119V70.2105H64.8945V84.1926Z" fill="#03989E"/>
<path d="M89.516 72.7124H84.2776V86.7206H81.489V72.7124H76.2766V70.2105H89.516V72.7124Z" fill="#03989E"/>
<path d="M109.738 86.7206H106.963V79.8794H98.206V86.7206H95.4304V70.2105H98.206V77.3775H106.963V70.2105H109.738V86.7206Z" fill="#03989E"/>
<path d="M116.936 84.2578C117.223 83.9646 117.578 83.8148 118.005 83.8148C118.428 83.8148 118.78 83.9646 119.06 84.2578C119.347 84.5445 119.49 84.9094 119.49 85.3524C119.49 85.815 119.347 86.1929 119.06 86.4861C118.78 86.7793 118.428 86.9291 118.005 86.9291C117.578 86.9291 117.223 86.7793 116.936 86.4861C116.656 86.1929 116.519 85.815 116.519 85.3524C116.519 84.9094 116.656 84.5445 116.936 84.2578Z" fill="#03989E"/>
<path d="M136.95 82.9938H128.623L127.033 86.7206H124.14L131.424 70.2105H134.278L141.497 86.7206H138.526L136.95 82.9938ZM135.881 80.5179L132.767 73.1815L129.652 80.5179H135.881Z" fill="#03989E"/>
<path d="M150 86.7206H147.224V70.2105H150V86.7206Z" fill="#03989E"/>
</svg>
