<svg width="70" height="41" viewBox="0 0 70 41" fill="none" xmlns="http://www.w3.org/2000/svg">
<path d="M38.0722 28.5602H31.9197C30.7323 28.5602 29.7609 27.5888 29.7609 26.4015V23.4141H31.199V26.4015C31.199 26.7983 31.5229 27.1221 31.9197 27.1221H38.0722C38.469 27.1221 38.7928 26.7983 38.7928 26.4015V14.4688H40.2325V26.4015C40.2325 27.5888 39.2671 28.5602 38.0722 28.5602Z" fill="#A6A6A6"/>
<mask id="mask0_213_5232" style="mask-type:luminance" maskUnits="userSpaceOnUse" x="29" y="0" width="12" height="15">
<path d="M29.7472 0.362244H40.2553V14.6406H29.7472V0.362244Z" fill="white"/>
</mask>
<g mask="url(#mask0_213_5232)">
<path d="M31.199 14.4688H29.7609V2.53622C29.7609 1.34737 30.7323 0.375916 31.9197 0.375916H38.0722C39.261 0.375916 40.2325 1.34737 40.2325 2.53622V5.52204H38.7928V2.53622C38.7928 2.13943 38.469 1.81561 38.0722 1.81561H31.9197C31.5229 1.81561 31.199 2.13943 31.199 2.53622V14.4688Z" fill="#03989E"/>
</g>
<mask id="mask1_213_5232" style="mask-type:luminance" maskUnits="userSpaceOnUse" x="20" y="9" width="16" height="12">
<path d="M20.8932 9.19199H35.1959V20.0893H20.8932V9.19199Z" fill="white"/>
</mask>
<g mask="url(#mask1_213_5232)">
<path d="M34.9998 19.7077H23.0672C21.8798 19.7077 20.9069 18.7363 20.9069 17.5489V11.3949C20.9069 10.2075 21.8798 9.23608 23.0672 9.23608H26.053V10.6758H23.0672C22.6704 10.6758 22.3466 10.9996 22.3466 11.3949V17.5489C22.3466 17.9442 22.6704 18.2695 23.0672 18.2695H34.9998V19.7077Z" fill="#03989E"/>
</g>
<path d="M46.9324 19.7077H43.9466V18.2695H46.9324C47.3292 18.2695 47.653 17.9442 47.653 17.5489V11.3948C47.653 10.9996 47.3292 10.6758 46.9324 10.6758H34.9998V9.23605H46.9324C48.1197 9.23605 49.0927 10.2075 49.0927 11.3948V17.5489C49.0927 18.7362 48.1197 19.7077 46.9324 19.7077Z" fill="#A6A6A6"/>
<path d="M6.67704 40.8319H5.38176V37.6393H1.29527V40.8319H0V33.1271H1.29527V36.4717H5.38176V33.1271H6.67704V40.8319Z" fill="#03989E"/>
<path d="M15.8557 34.2947H11.6476V36.3744H15.4118V37.542H11.6476V39.6643H15.9834V40.8319H10.3523V33.1271H15.8557V34.2947Z" fill="#03989E"/>
<path d="M24.1939 39.0927H20.3081L19.5662 40.8319H18.2162L21.6155 33.1271H22.9473L26.3162 40.8319H24.9297L24.1939 39.0927ZM23.6952 37.9373L22.2419 34.5136L20.7885 37.9373H23.6952Z" fill="#03989E"/>
<path d="M30.284 39.6521H33.6226V40.8319H28.9888V33.1271H30.284V39.6521Z" fill="#03989E"/>
<path d="M41.7741 34.2947H39.3295V40.8319H38.0281V34.2947H35.5957V33.1271H41.7741V34.2947Z" fill="#03989E"/>
<path d="M51.2112 40.8319H49.9159V37.6393H45.8295V40.8319H44.5342V33.1271H45.8295V36.4717H49.9159V33.1271H51.2112V40.8319Z" fill="#03989E"/>
<path d="M54.5703 39.6826C54.7041 39.5457 54.8698 39.4758 55.069 39.4758C55.2666 39.4758 55.4308 39.5457 55.5615 39.6826C55.6953 39.8163 55.7622 39.9866 55.7622 40.1934C55.7622 40.4092 55.6953 40.5856 55.5615 40.7224C55.4308 40.8592 55.2666 40.9292 55.069 40.9292C54.8698 40.9292 54.7041 40.8592 54.5703 40.7224C54.4396 40.5856 54.3757 40.4092 54.3757 40.1934C54.3757 39.9866 54.4396 39.8163 54.5703 39.6826Z" fill="#03989E"/>
<path d="M63.9097 39.0927H60.0239L59.282 40.8319H57.932L61.3313 33.1271H62.6631L66.032 40.8319H64.6455L63.9097 39.0927ZM63.4111 37.9373L61.9577 34.5136L60.5043 37.9373H63.4111Z" fill="#03989E"/>
<path d="M70 40.8319H68.7047V33.1271H70V40.8319Z" fill="#03989E"/>
</svg>
