<svg width="100" height="98" viewBox="0 0 100 98" fill="none" xmlns="http://www.w3.org/2000/svg">
<path d="M56.4412 97.0315C52.5367 95.1621 50.9807 90.7178 50.4304 86.5782C50.3375 85.891 50.1428 85.1762 50.3647 84.5164C50.5867 83.8567 51.2706 83.3183 51.9274 83.5039C52.4732 83.6574 52.7926 84.2118 53.1572 84.6493C53.6422 85.2396 54.2831 85.6782 55.0053 85.9139C55.4764 86.0674 56.0358 86.1155 56.4231 85.8039C56.953 85.3755 56.876 84.5462 56.7673 83.8635C56.5454 82.5974 56.3279 81.3314 56.115 80.0653C55.9616 79.3897 55.9165 78.6935 55.9814 78.0035C56.0811 77.3162 56.4457 76.629 57.0572 76.3449C57.6687 76.0608 58.5271 76.2922 58.7739 76.9382C58.8467 77.216 58.9012 77.4984 58.937 77.7836C59.0027 78.0653 59.1861 78.3563 59.4647 78.3906C59.7433 78.425 59.9856 78.1845 60.1554 77.9485C60.7352 77.1398 61.0614 76.1708 61.3558 75.2109C61.6502 74.251 61.9265 73.2728 62.4338 72.4115C62.9411 71.5501 63.7157 70.8079 64.6737 70.5788C65.6317 70.3497 66.7641 70.7849 67.165 71.7036C67.5659 72.6222 67.1786 73.6966 66.712 74.5809C66.0035 75.8903 65.1118 77.0893 64.0645 78.1409C63.8556 78.3092 63.705 78.5403 63.6342 78.8007C63.564 79.2818 64.0668 79.6621 64.5401 79.7354C65.0701 79.8179 65.6091 79.6712 66.1458 79.6438C66.6826 79.6163 67.2918 79.7537 67.5772 80.2233C67.969 80.8739 67.5138 81.7055 67.0268 82.2851C66.0488 83.4398 64.8821 84.4162 63.5776 85.1716C63.111 85.4397 62.615 85.6917 62.273 86.1132C61.9311 86.5347 61.7929 87.1899 62.1145 87.6297C62.4361 88.0696 63.0861 88.1177 63.5889 87.9298C64.0917 87.742 64.5107 87.3777 64.9749 87.1051C65.8446 86.592 67.054 86.4499 67.7856 87.1601C68.0137 87.4084 68.1818 87.7069 68.2765 88.0321C68.3712 88.3573 68.39 88.7003 68.3314 89.034C68.2109 89.6989 67.959 90.3324 67.5908 90.8965C66.4179 92.9359 64.7314 94.6244 62.7033 95.7898C60.6763 96.9124 58.715 97.4599 56.4434 97.0338" fill="#F5F5F5"/>
<path d="M57.0593 94.2688C57.3597 91.9111 57.7937 89.5729 58.3593 87.2656L58.7942 85.4489C58.9368 84.851 59.0795 84.26 59.2471 83.6918C59.5858 82.6015 59.9835 81.5308 60.4384 80.4846C60.8665 79.4812 61.3081 78.5419 61.7271 77.6691C62.1461 76.7963 62.556 75.9899 62.9591 75.2729C63.5884 74.1356 64.3064 73.0508 65.1062 72.029C65.3893 71.667 65.618 71.3944 65.7743 71.2112C65.849 71.1241 65.9102 71.0554 65.9532 71.0027C65.9962 70.95 66.0166 70.934 66.0189 70.9362C66.0025 70.9627 65.9843 70.9879 65.9645 71.0118L65.7924 71.2272C65.6429 71.415 65.421 71.6854 65.1447 72.0588C64.3623 73.0906 63.6575 74.1803 63.0361 75.3187C62.6398 76.038 62.2367 76.8444 61.8199 77.7172C61.4032 78.5901 60.9684 79.5293 60.5449 80.5327C60.0939 81.5789 59.7007 82.6496 59.3672 83.7399C59.1928 84.3058 59.0523 84.8854 58.9142 85.4902L58.4794 87.3091C57.915 89.6116 57.4787 91.9444 57.1726 94.2963" fill="#E0E0E0"/>
<path d="M59.2857 83.6825C59.2366 83.5934 59.1978 83.4988 59.1702 83.4007C59.1022 83.2197 59.0139 82.9425 58.9097 82.6195C58.7014 81.9552 58.4432 81.0274 58.1623 80.0056C57.8815 78.9839 57.612 78.0607 57.3923 77.4032C57.2836 77.0733 57.193 76.8053 57.1296 76.6243C57.0915 76.5302 57.062 76.4329 57.0413 76.3334C57.0959 76.4188 57.1407 76.5103 57.1749 76.606C57.2542 76.7824 57.3561 77.0458 57.4761 77.3711C57.7184 78.0263 58.0015 78.945 58.2846 79.9713C58.5677 80.9976 58.8055 81.8956 58.9958 82.592C59.0841 82.9082 59.1566 83.1739 59.2223 83.387C59.2519 83.4834 59.2731 83.5823 59.2857 83.6825Z" fill="#E0E0E0"/>
<path d="M67.6995 80.5532C67.5901 80.5994 67.4763 80.6339 67.3598 80.6563C67.1333 80.7136 66.823 80.7961 66.4335 80.9106C65.6521 81.1397 64.5854 81.4787 63.4236 81.914C62.2617 82.3493 61.2267 82.7914 60.4793 83.1305C60.1079 83.2977 59.8112 83.442 59.6051 83.5405C59.5016 83.5976 59.3932 83.6451 59.2812 83.6826C59.3749 83.6095 59.4759 83.5466 59.5825 83.4947C59.7818 83.3825 60.0739 83.2267 60.4408 83.0365C61.1724 82.6746 62.2051 82.2187 63.3692 81.7811C64.3628 81.4051 65.375 81.0817 66.4018 80.8121C66.7959 80.7067 67.1175 80.638 67.3417 80.5945C67.4594 80.5695 67.5792 80.5557 67.6995 80.5532Z" fill="#E0E0E0"/>
<path d="M57.1386 94.0923C57.1096 94.0623 57.0838 94.0293 57.0616 93.9938L56.86 93.7029C56.6857 93.4463 56.4433 93.0729 56.1512 92.6055C55.5623 91.6709 54.7923 90.3536 53.9611 88.8874C53.1299 87.4213 52.3757 86.0995 51.8027 85.1556L51.1233 84.0354L50.9421 83.7307C50.9182 83.6969 50.8991 83.6599 50.8855 83.6207C50.8855 83.6207 50.9149 83.6505 50.9625 83.7169C51.0101 83.7834 51.0848 83.8911 51.1641 84.0102C51.3385 84.2645 51.5808 84.6379 51.8752 85.1075C52.4618 86.0422 53.2341 87.3571 54.0653 88.8233C54.8965 90.2895 55.6506 91.6113 56.2214 92.5574L56.9008 93.6754C56.9733 93.7968 57.0344 93.9045 57.082 93.9801C57.1063 94.0144 57.1254 94.0523 57.1386 94.0923Z" fill="#E0E0E0"/>
<path d="M68.0504 88.3536C68.0185 88.3818 67.9826 88.405 67.9439 88.4224L67.6291 88.5919L66.4605 89.2081C65.473 89.7305 64.1187 90.4658 62.6239 91.2699C61.1291 92.074 59.768 92.8094 58.7738 93.3088C58.2755 93.5585 57.8678 93.767 57.587 93.8884L57.2473 94.0396C57.21 94.0596 57.1705 94.075 57.1295 94.0854C57.1619 94.0579 57.1977 94.0348 57.236 94.0167L57.553 93.8472L58.7217 93.2286C59.7069 92.7086 61.0612 91.9732 62.556 91.1668C64.0507 90.3604 65.4142 89.6297 66.4061 89.1302C66.9044 88.8805 67.3121 88.6721 67.5929 88.5507L67.919 88.3995C67.9602 88.3774 68.0045 88.362 68.0504 88.3536Z" fill="#E0E0E0"/>
<path d="M28.1221 47.8579C28.1221 47.8579 25.4315 48.2359 26.9422 54.1968C28.4528 60.1576 29.7347 63.232 29.7347 63.232C29.7347 63.232 29.9362 64.5813 28.8604 64.5401C27.7847 64.4988 25.5901 63.6237 24.845 64.7898C24.0749 66.0085 24.7498 67.4747 26.4303 69.0118C28.1108 70.549 31.6937 74.0518 32.0153 74.3702C32.3369 74.6886 32.5725 75.3438 31.8341 75.4331C31.0958 75.5225 25.8596 74.9017 25.7192 77.4331C25.5788 79.9645 30.9758 83.465 31.5578 83.859C32.1399 84.253 32.2373 84.56 32.1014 84.9036C31.9655 85.2472 30.2307 84.8693 28.7336 84.7524C27.2366 84.6356 25.4791 84.7707 25.5176 86.2369C25.5561 87.7031 28.3916 91.4143 36.6582 94.1725L40.574 95.1965L43.4661 92.3146C49.2867 85.765 49.9231 81.1214 49.2369 79.8293C48.5506 78.5373 46.9721 79.3047 45.7174 80.1569C44.4627 81.0091 43.1491 82.2187 42.8682 81.9896C42.5874 81.7605 42.5149 81.4444 42.8275 80.8098C43.14 80.1753 46.1046 74.4252 44.7367 72.2992C43.3688 70.1733 39.1291 73.3393 38.4496 73.6302C37.7702 73.9212 37.6479 73.2293 37.7702 72.7986C37.8925 72.368 39.274 67.5296 39.9851 65.3419C40.6963 63.1541 40.5604 61.5459 39.2921 60.8769C38.0691 60.2332 36.5993 62.1026 35.6843 62.6799C34.7693 63.2572 34.2846 61.9926 34.2846 61.9926C34.2846 61.9926 33.886 58.6823 32.269 52.7489C30.6519 46.8156 28.0723 47.8785 28.0723 47.8785" fill="#EBEBEB"/>
<path d="M40.5716 96.1816C39.4007 91.8289 37.4462 84.0399 35.7362 77.3529C34.0263 70.6658 32.4727 64.6362 31.3221 60.2698C30.7469 58.0889 30.2803 56.3249 29.9633 55.0993C29.8047 54.4922 29.6802 54.018 29.5941 53.6927L29.499 53.3262C29.4786 53.2437 29.4718 53.2002 29.4718 53.2002C29.4718 53.2002 29.4877 53.2391 29.5126 53.3216C29.5375 53.4041 29.5715 53.5301 29.6167 53.6859C29.7096 54.0112 29.8432 54.4808 30.0108 55.0856C30.3505 56.302 30.8307 58.0637 31.415 60.2446C32.5859 64.5973 34.1554 70.6475 35.8653 77.3208C37.5753 83.9941 39.5139 91.7899 40.6644 96.1563" fill="#E0E0E0"/>
<path d="M27.8662 66.1505C27.9567 66.1882 28.0432 66.2351 28.1244 66.2903C28.2852 66.3865 28.5162 66.5331 28.8038 66.7164C29.3678 67.0852 30.1355 67.6144 30.9713 68.2123L33.1047 69.7518L33.7547 70.2099C33.8367 70.2615 33.9126 70.3222 33.9812 70.3909C33.8898 70.3536 33.8025 70.3067 33.7207 70.2512C33.5599 70.155 33.3289 70.0083 33.0413 69.8228C32.4819 69.4494 31.7209 68.9064 30.8852 68.3108L28.7404 66.7874L28.0882 66.3292C28.0081 66.2778 27.9337 66.2179 27.8662 66.1505Z" fill="#E0E0E0"/>
<path d="M34.3093 70.2007C34.2799 70.1824 35.2877 68.5352 36.5583 66.5216C37.8288 64.5079 38.8865 62.8905 38.9159 62.9088C38.9454 62.9272 37.9376 64.5766 36.6647 66.5903C35.3919 68.604 34.3388 70.2144 34.3093 70.2007Z" fill="#E0E0E0"/>
<path d="M36.4791 80.5739C36.5418 80.4948 36.6141 80.424 36.6943 80.3631L37.3035 79.8225C37.8176 79.3643 38.5265 78.732 39.2829 78.0035C40.0394 77.275 40.7052 76.5946 41.1809 76.0975C41.4073 75.8684 41.593 75.6645 41.7448 75.5088C41.8134 75.4319 41.8892 75.3621 41.9713 75.3003C41.9211 75.3879 41.8602 75.4687 41.7901 75.5408C41.6678 75.6897 41.4843 75.9005 41.2533 76.1571C40.8004 76.6725 40.139 77.3667 39.3781 78.0952C38.6171 78.8237 37.9014 79.4514 37.3715 79.8912C37.1042 80.1203 36.8868 80.2852 36.7328 80.4021C36.6548 80.4686 36.5697 80.5262 36.4791 80.5739Z" fill="#E0E0E0"/>
<path d="M29.8546 78.2074C29.946 78.2185 30.0358 78.2408 30.1219 78.2738L30.8398 78.5029C31.4422 78.6976 32.2734 78.9748 33.1884 79.2864C34.1034 79.598 34.93 79.8912 35.5257 80.1088L36.23 80.37C36.3177 80.3977 36.4021 80.4354 36.4814 80.4822C36.3899 80.4728 36.3001 80.4513 36.2142 80.4181L35.4962 80.189C34.8938 79.9943 34.0626 79.7171 33.1476 79.4032C32.2327 79.0894 31.406 78.7984 30.8104 78.5831L30.106 78.3196C30.0176 78.2938 29.9331 78.256 29.8546 78.2074Z" fill="#E0E0E0"/>
<path d="M30.62 87.6113C30.7365 87.6289 30.8511 87.6581 30.962 87.6984L31.8815 87.9824C32.6561 88.2276 33.7228 88.5735 34.9005 88.9652C36.0782 89.357 37.1404 89.7144 37.9081 89.9824L38.814 90.3031C38.9268 90.3396 39.0366 90.3848 39.1424 90.4383C39.0251 90.4208 38.9098 90.3917 38.7982 90.3512L37.8787 90.0671C37.1041 89.822 36.0374 89.4761 34.8597 89.0844C33.682 88.6926 32.6198 88.333 31.8543 88.0672L30.9484 87.7442C30.8352 87.71 30.7253 87.6655 30.62 87.6113Z" fill="#E0E0E0"/>
<path d="M38.9568 90.3124C39.0365 90.2133 39.1252 90.1221 39.2218 90.0397L39.9714 89.3273C40.6033 88.7248 41.473 87.8886 42.4083 86.9379C43.3437 85.9872 44.1704 85.1052 44.7637 84.4638L45.4658 83.7032C45.5485 83.606 45.6386 83.5156 45.7353 83.4329C45.6693 83.5406 45.5935 83.6418 45.5089 83.7353C45.3548 83.9254 45.1238 84.1934 44.8294 84.5233C44.2519 85.1831 43.4366 86.0765 42.4967 87.0272C41.5568 87.978 40.6848 88.8072 40.0326 89.3937C39.7064 89.6847 39.4415 89.9206 39.2535 90.081C39.1611 90.1663 39.0619 90.2437 38.9568 90.3124Z" fill="#E0E0E0"/>
<path d="M16.4357 12.3103L14.2252 11.623C14.2252 11.623 13.6455 13.5015 11.7068 12.9265C11.3315 12.822 10.9975 12.602 10.7513 12.2971C10.505 11.9921 10.3585 11.6173 10.3321 11.2244C10.303 10.8931 10.3526 10.5596 10.4767 10.2516C10.6008 9.94359 10.7958 9.67 11.0455 9.45357C11.6139 8.945 12.6104 8.63573 14.0169 9.3711L15.5728 4.33118L13.3873 3.64392L12.4813 6.59686C12.4813 6.59686 9.16568 6.42962 8.11255 9.84532C7.10471 13.1144 9.76812 14.789 11.0092 15.1808C11.9514 15.4786 15.2603 16.2666 16.4357 12.3103Z" fill="#F5F5F5"/>
<path d="M13.6833 2.59503L15.9015 3.29517L16.5478 1.20014L14.3296 0.500001L13.6833 2.59503Z" fill="#F5F5F5"/>
<path d="M22.5348 6.61987L23.4203 6.39078C23.3933 6.28906 23.3867 6.18287 23.4011 6.07854C23.4154 5.97421 23.4504 5.87386 23.5038 5.78346C23.5573 5.69306 23.6281 5.61445 23.7122 5.55231C23.7963 5.49017 23.8919 5.44577 23.9933 5.42174C24.1408 5.37669 24.2986 5.37916 24.4447 5.42883C24.5907 5.4785 24.7179 5.57289 24.8086 5.69894C24.8856 5.8036 24.937 5.92519 24.9587 6.05379C24.9803 6.1824 24.9716 6.31435 24.9332 6.43889C24.8494 6.72983 24.5799 7.04597 23.9548 7.09866L24.4825 9.11692L25.3567 8.88783L25.0487 7.70574C25.3802 7.50348 25.6368 7.19654 25.7788 6.83223C25.9208 6.46792 25.9404 6.06647 25.8346 5.68977C25.4949 4.37939 24.2492 4.38627 23.7578 4.51685C23.3773 4.60619 22.1067 5.04375 22.5348 6.61987Z" fill="#EBEBEB"/>
<path d="M25.6651 9.18213L24.7732 9.42395L24.9964 10.2661L25.8883 10.0243L25.6651 9.18213Z" fill="#EBEBEB"/>
<path d="M95.6449 29.8058L96.5055 30.1197C96.5416 30.0211 96.5969 29.9308 96.668 29.8542C96.7391 29.7775 96.8247 29.716 96.9196 29.6733C97.0146 29.6306 97.1171 29.6076 97.221 29.6056C97.3249 29.6035 97.4281 29.6225 97.5247 29.6615C97.6697 29.7087 97.7967 29.8 97.8883 29.9231C97.9799 30.0461 98.0317 30.1948 98.0365 30.3487C98.0419 30.4801 98.0163 30.6109 97.962 30.7304C97.9077 30.8499 97.8261 30.9546 97.724 31.036C97.4975 31.2262 97.0921 31.3292 96.5486 31.0131L95.8442 32.9764L96.6958 33.2879L97.108 32.1425C97.4945 32.1667 97.8782 32.062 98.2002 31.8443C98.5222 31.6266 98.7646 31.308 98.8904 30.9375C99.3433 29.6638 98.3219 28.9559 97.8395 28.7795C97.4703 28.6329 96.1794 28.2641 95.6449 29.8058Z" fill="#EBEBEB"/>
<path d="M96.5683 33.686L95.7037 33.3693L95.4114 34.1856L96.276 34.5023L96.5683 33.686Z" fill="#EBEBEB"/>
<path d="M4.30987 39.7757L6.12171 39.0655C6.12171 39.0655 5.53286 37.5192 7.11143 36.8709C7.41354 36.7416 7.74787 36.7103 8.06833 36.7812C8.38878 36.8522 8.67957 37.022 8.90062 37.2672C9.08868 37.4711 9.22649 37.7169 9.30284 37.9849C9.37919 38.2528 9.39192 38.5351 9.33999 38.809C9.22675 39.4458 8.72849 40.1835 7.41717 40.4378L9.00253 44.5911L10.8144 43.8901L9.88581 41.4572C9.88581 41.4572 12.1506 39.8124 11.0884 36.9946C10.0579 34.3005 7.4217 34.6075 6.40934 35.0038C5.62798 35.3085 3.03705 36.5387 4.30987 39.7757Z" fill="#F5F5F5"/>
<path d="M11.1577 44.7355L9.32959 45.4479L9.98747 47.1751L11.8155 46.4627L11.1577 44.7355Z" fill="#F5F5F5"/>
<path d="M96.3537 46.7651L95.0628 47.2668C95.0628 47.2668 95.4795 48.3641 94.3607 48.8223C94.1464 48.9128 93.9099 48.9346 93.683 48.8846C93.4562 48.8346 93.25 48.7153 93.0924 48.5428C92.9592 48.3983 92.8616 48.224 92.8077 48.0341C92.7538 47.8442 92.745 47.644 92.7821 47.4501C92.8636 46.9919 93.217 46.4787 94.141 46.3046L93.0312 43.3517L91.7539 43.8488L92.4107 45.5738C91.9458 45.9335 91.6107 46.4378 91.4568 47.009C91.303 47.5802 91.3389 48.1867 91.5591 48.7352C92.2861 50.6435 94.1478 50.4282 94.8725 50.1464C95.4206 49.9288 97.2551 49.0582 96.3537 46.7651Z" fill="#F5F5F5"/>
<path d="M91.5011 43.2503L92.7966 42.7455L92.3309 41.5227L91.0354 42.0276L91.5011 43.2503Z" fill="#F5F5F5"/>
<path d="M100 97.4232C100 97.4576 77.6124 97.4828 50.0023 97.4828C22.3921 97.4828 0 97.4576 0 97.4232C0 97.3888 22.383 97.3636 50.0023 97.3636C77.6215 97.3636 100 97.3911 100 97.4232Z" fill="#263238"/>
<path d="M14.3611 91.4738C14.5876 90.6308 14.0282 89.7854 13.4167 89.1829C12.8052 88.5804 12.0737 88.026 11.7543 87.2174C11.238 85.907 11.931 84.2117 11.0523 83.119C10.5336 82.4775 9.60505 82.2622 9.1453 81.5749C8.93272 81.1961 8.79215 80.7804 8.73084 80.3493C8.24215 78.1728 7.18376 76.1694 5.66656 74.5488C5.56429 76.4875 5.97968 78.4182 6.86917 80.1386C7.22475 80.8258 7.66412 81.4948 7.77509 82.2622C7.9676 83.5061 7.2791 84.7822 7.58258 86.0101C7.9291 87.4075 9.48049 88.3445 9.55296 89.7831C9.61638 90.9996 8.56777 92.074 8.64704 93.2836C8.71056 93.8016 8.8962 94.2966 9.18833 94.7268C10.1169 96.2915 11.4848 97.3682 13.5549 97.3339L16.0914 97.4232L14.3611 91.4738Z" fill="#03989E"/>
<g opacity="0.3">
<path d="M14.3611 91.4738C14.5876 90.6308 14.0282 89.7854 13.4167 89.1829C12.8052 88.5804 12.0737 88.026 11.7543 87.2174C11.238 85.907 11.931 84.2117 11.0523 83.119C10.5336 82.4775 9.60505 82.2622 9.1453 81.5749C8.93272 81.1961 8.79215 80.7804 8.73084 80.3493C8.24215 78.1728 7.18376 76.1694 5.66656 74.5488C5.56429 76.4875 5.97968 78.4182 6.86917 80.1386C7.22475 80.8258 7.66412 81.4948 7.77509 82.2622C7.9676 83.5061 7.2791 84.7822 7.58258 86.0101C7.9291 87.4075 9.48049 88.3445 9.55296 89.7831C9.61638 90.9996 8.56777 92.074 8.64704 93.2836C8.71056 93.8016 8.8962 94.2966 9.18833 94.7268C10.1169 96.2915 11.4848 97.3682 13.5549 97.3339L16.0914 97.4232L14.3611 91.4738Z" fill="black"/>
</g>
<path d="M16.6032 97.4759C16.8355 97.5122 17.0723 97.5075 17.303 97.4621C17.5832 97.4191 17.8585 97.3485 18.1251 97.2514C18.4934 97.1219 18.8378 96.9314 19.1443 96.6878C19.3287 96.5378 19.4728 96.3432 19.5633 96.122C19.639 95.8741 19.6787 95.6163 19.6811 95.3568C19.6862 95.0795 19.7066 94.8026 19.7422 94.5275C19.7899 94.2347 19.8946 93.9544 20.0502 93.7028C20.3492 93.1713 20.8474 92.6673 21.006 91.9457C21.1645 91.2241 21.0558 90.4681 20.938 89.6984C20.8203 88.9286 20.7115 88.0948 20.9969 87.2884C21.2823 86.482 21.8258 85.7604 22.1044 84.8578C22.383 83.9552 22.2516 82.9609 22.3105 81.9919C22.3279 81.4997 22.4402 81.0156 22.6412 80.567C22.845 80.1088 23.1303 79.685 23.3523 79.2085C23.8053 78.2417 23.8823 77.1467 24.0046 76.0723C24.0657 75.5316 24.1246 74.9841 24.1857 74.4343C24.2243 73.8784 24.3192 73.328 24.4688 72.7917C24.6407 72.2511 24.8433 71.7211 25.0758 71.2042C25.1955 70.9369 25.294 70.6603 25.3702 70.3772C25.4129 70.0841 25.4401 69.7889 25.4518 69.4929C25.4788 68.9002 25.4561 68.3063 25.3838 67.7175C25.3159 67.1264 25.2094 66.5399 25.146 65.9466C25.146 65.91 25.146 65.8756 25.146 65.8435L25.1324 65.7267L25.0305 65.7771C24.495 66.055 24.03 66.454 23.6716 66.9431C23.3201 67.4221 23.0372 67.9488 22.8314 68.5078C22.4079 69.6097 22.2561 70.7643 22.0432 71.8662C21.8304 72.9681 21.5586 74.0517 21.0014 74.9681C20.7229 75.4262 20.3854 75.8432 20.0955 76.2876C19.7807 76.7213 19.5656 77.2207 19.4659 77.7492C19.3142 78.8351 19.9053 79.7881 19.783 80.7502C19.7278 81.2215 19.5733 81.6754 19.33 82.0812C19.1035 82.4913 18.8295 82.8716 18.5713 83.2519C18.3096 83.6249 18.0822 84.0213 17.8919 84.4362C17.7127 84.8423 17.6069 85.2776 17.5793 85.7214C17.5182 86.5874 17.6382 87.4075 17.5793 88.1818C17.5086 88.9198 17.2955 89.6367 16.952 90.2917C16.6462 90.9217 16.3042 91.4921 16.0189 92.0465C15.8762 92.3214 15.7426 92.5918 15.6339 92.8644C15.531 93.1261 15.4551 93.3979 15.4074 93.6753C15.3316 94.1599 15.3255 94.6529 15.3893 95.1392C15.4558 95.8173 15.7066 96.4635 16.114 97.0063C16.1763 97.0883 16.2452 97.1649 16.3201 97.2354C16.3701 97.2885 16.4255 97.3361 16.4854 97.3774C16.5805 97.4484 16.6304 97.4805 16.6304 97.4805C16.4493 97.3357 16.2845 97.1713 16.1389 96.9902C15.7501 96.4456 15.5152 95.8041 15.4595 95.1346C15.4018 94.6545 15.4125 94.1685 15.4912 93.6914C15.5389 93.4206 15.6148 93.1556 15.7177 92.901C15.8324 92.6254 15.9617 92.3562 16.1049 92.0946C16.3926 91.5448 16.7368 90.9767 17.0494 90.3421C17.4031 89.6768 17.6233 88.9473 17.6971 88.1956C17.765 87.4052 17.6473 86.5805 17.7107 85.7375C17.7399 85.3079 17.8433 84.8869 18.0164 84.4935C18.2079 84.0872 18.4353 83.6992 18.6959 83.3343C18.9541 82.954 19.2281 82.5738 19.4636 82.1545C19.7221 81.7333 19.8875 81.2605 19.9483 80.7686C20.0706 79.7445 19.484 78.787 19.6358 77.7767C19.735 77.2713 19.943 76.7942 20.245 76.3792C20.5326 75.9417 20.8723 75.5247 21.1509 75.0551C21.7284 74.1136 22.007 73.0094 22.2176 71.9029C22.4283 70.7964 22.5845 69.651 23.0013 68.5697C23.2017 68.0262 23.4769 67.5141 23.8188 67.0485C24.1636 66.5791 24.6108 66.1966 25.1256 65.9306L25.0101 65.8641C25.0101 65.8985 25.0101 65.9329 25.0215 65.9695C25.0849 66.5697 25.1913 67.1562 25.2479 67.7427C25.3195 68.3223 25.3414 68.9071 25.3136 69.4906C25.3022 69.7773 25.2765 70.0633 25.2366 70.3474C25.1634 70.6214 25.068 70.8888 24.9512 71.1469C24.7175 71.6693 24.5134 72.2047 24.3398 72.7505C24.1888 73.2952 24.0932 73.854 24.0544 74.4183C23.9955 74.9704 23.9344 75.5179 23.8755 76.0585C23.7532 77.1375 23.6739 78.2142 23.2413 79.1466C23.0148 79.6048 22.7431 80.0423 22.5324 80.5097C22.3252 80.9751 22.2098 81.4771 22.1927 81.9873C22.1361 82.977 22.2629 83.946 21.998 84.8211C21.733 85.6962 21.1826 86.4247 20.9041 87.2517C20.6255 88.0787 20.7274 88.9538 20.8497 89.7213C20.972 90.4887 21.0943 91.2447 20.9312 91.9251C20.7682 92.6055 20.3016 93.1141 19.9981 93.6593C19.8381 93.9218 19.7311 94.2138 19.6833 94.5184C19.6491 94.7966 19.631 95.0765 19.629 95.3568C19.6293 95.6098 19.5927 95.8615 19.5203 96.1037C19.4364 96.3135 19.3016 96.4986 19.1284 96.642C18.8301 96.8853 18.4942 97.0773 18.1342 97.2102C17.8711 97.3127 17.5988 97.3895 17.3211 97.4392C17.1514 97.4704 16.9795 97.4873 16.807 97.4896C16.6643 97.4759 16.6032 97.4759 16.6032 97.4759Z" fill="#263238"/>
<path d="M24.6161 67.2593C24.604 67.2838 24.5956 67.3101 24.5912 67.3372L24.5368 67.5663C24.487 67.7701 24.4258 68.0748 24.3307 68.4551C24.2356 68.8354 24.0023 69.2661 23.8053 69.7953C23.5745 70.391 23.3735 70.9981 23.2029 71.6142C23.0081 72.3015 22.8382 73.0575 22.657 73.873C22.5031 74.7417 22.2302 75.5845 21.8462 76.3769C21.6379 76.7939 21.3933 77.2154 21.2189 77.6782C21.036 78.1507 20.9135 78.645 20.8543 79.1489C20.7254 80.1926 20.5425 81.2288 20.3062 82.253C19.7989 84.3538 19.3142 86.356 18.8726 88.1795C18.4309 90.0031 18.0142 91.6342 17.6699 93.0133C17.3257 94.3924 17.0652 95.492 16.875 96.2778C16.7867 96.6535 16.7165 96.949 16.6666 97.1666C16.6463 97.2605 16.6281 97.3361 16.6145 97.3957C16.612 97.4224 16.612 97.4492 16.6145 97.4759C16.6277 97.4522 16.6376 97.4267 16.644 97.4003C16.6598 97.3384 16.6825 97.2651 16.7097 97.1712C16.7663 96.9582 16.8456 96.6626 16.9475 96.2892C17.1513 95.5103 17.4389 94.4038 17.7945 93.0408C18.1501 91.6777 18.5645 90.0283 19.0288 88.2162C19.4931 86.4041 19.9642 84.3881 20.476 82.2851C20.7108 81.2581 20.8893 80.2188 21.0105 79.1718C21.0684 78.68 21.1871 78.1974 21.3638 77.7354C21.5428 77.2773 21.7715 76.8672 21.9799 76.4457C22.4328 75.6095 22.6117 74.7115 22.7907 73.9028C22.9696 73.0941 23.1281 72.329 23.3138 71.6463C23.4995 70.9636 23.6943 70.3542 23.8891 69.8273C24.0839 69.3004 24.299 68.8652 24.3919 68.4712C24.4847 68.0771 24.5278 67.7839 24.5685 67.5731C24.5836 67.4784 24.5972 67.4021 24.6093 67.344C24.6161 67.2868 24.6206 67.2593 24.6161 67.2593Z" fill="#263238"/>
<path d="M17.0517 97.4873C18.7072 96.4908 19.1828 93.4669 18.4921 91.6479C17.8013 89.8289 16.5919 88.1658 16.4062 86.2254C16.2612 84.734 16.7459 83.2037 16.4062 81.7467C15.9419 79.7789 14.044 78.2555 14.0666 76.2326C14.078 75.0986 14.7166 74.0311 14.6646 72.8971C14.6034 71.5088 13.548 70.4046 12.8957 69.1813C11.8947 67.3051 11.829 65.0898 11.487 62.9959C11.1451 60.9021 10.3546 58.6433 8.51109 57.6101C8.23932 59.3947 7.77503 60.618 7.91998 63.0349C7.97434 63.9031 8.97085 65.5549 9.10674 67.4677C9.18827 68.6132 9.24262 69.7449 9.31283 70.8811C9.38304 72.0174 9.45099 73.117 9.8428 74.1525C10.144 74.9474 10.6264 75.6691 10.8506 76.4892C11.2696 78.031 10.717 79.6964 11.0567 81.2634C11.3444 82.5875 12.2503 83.7261 12.436 85.0685C12.6942 86.9539 11.4893 88.9149 12.1053 90.7132C12.4133 91.6067 13.1381 92.3168 13.3442 93.2446C13.505 93.9594 13.3306 94.7177 13.4755 95.4347C13.702 96.5939 15.8898 97.4965 17.0562 97.4209" fill="#03989E"/>
<path d="M8.96411 59.3718C8.96102 59.4054 8.96102 59.4391 8.96411 59.4726C8.96411 59.5482 8.98676 59.6444 9.00035 59.7659C9.03885 60.0247 9.08188 60.4027 9.16794 60.893C9.254 61.3832 9.51219 61.9376 9.71149 62.6065C9.9108 63.2755 10.1327 64.0406 10.3185 64.8974C10.5042 65.7542 10.6672 66.7095 10.8326 67.7335C10.9979 68.7575 11.1791 69.8732 11.6819 70.9407C11.9084 71.4745 12.1756 72.0106 12.3613 72.5833C12.5516 73.1695 12.6688 73.7775 12.7101 74.3931C12.8027 75.6992 12.9652 76.9993 13.197 78.2876C13.7043 80.9312 14.1867 83.4489 14.6261 85.7421C15.0655 88.0352 15.5071 90.081 15.8604 91.8129C16.2137 93.5448 16.5036 94.9285 16.7052 95.9044L16.9317 97.0154C16.9589 97.1346 16.9792 97.2285 16.9974 97.3018C17.0035 97.3354 17.0126 97.3684 17.0245 97.4003C17.0285 97.3668 17.0285 97.333 17.0245 97.2995C17.0109 97.2239 16.9951 97.13 16.9747 97.0086C16.9249 96.7428 16.8547 96.3671 16.7663 95.8906C16.5761 94.9124 16.3134 93.515 15.9714 91.79C15.6294 90.0649 15.224 87.9963 14.7733 85.7123C14.3226 83.4283 13.8674 80.9014 13.3578 78.2601C13.1259 76.9717 12.9626 75.6717 12.8686 74.3656C12.8255 73.7373 12.7045 73.1169 12.5085 72.5191C12.307 71.9373 12.042 71.3989 11.8087 70.8674C11.3104 69.8159 11.1293 68.7186 10.9571 67.6991C10.785 66.6797 10.6197 65.7221 10.4226 64.8608C10.2256 63.9994 10.0104 63.2297 9.7885 62.5699C9.56655 61.9101 9.31968 61.3511 9.22003 60.8723C9.12038 60.3936 9.07282 60.0087 9.02526 59.7544C9.00261 59.6353 8.98449 59.5391 8.9709 59.4635C8.97043 59.4328 8.96816 59.4022 8.96411 59.3718Z" fill="#263238"/>
<path d="M88.8345 11.5155H87.9286C87.9292 11.6194 87.9092 11.7224 87.8698 11.8184C87.8303 11.9144 87.7722 12.0013 87.6989 12.0742C87.6257 12.147 87.5387 12.2043 87.4431 12.2425C87.3476 12.2807 87.2454 12.2991 87.1427 12.2967C86.991 12.3022 86.8414 12.2597 86.7147 12.1751C86.588 12.0905 86.4906 11.968 86.4361 11.8248C86.3883 11.7055 86.3692 11.5764 86.3802 11.4482C86.3912 11.32 86.4321 11.1963 86.4995 11.0871C86.6535 10.8305 86.9887 10.5991 87.5956 10.7068V8.64502H86.7056V9.85002C86.3403 9.95878 86.0204 10.1858 85.795 10.4961C85.5696 10.8065 85.4511 11.1831 85.4577 11.5682C85.4577 12.9015 86.6399 13.2107 87.1472 13.2107C87.5345 13.2199 88.8526 13.126 88.8345 11.5155Z" fill="#03989E"/>
<path d="M86.6988 8.22815H87.6024V7.37365H86.6988V8.22815Z" fill="#03989E"/>
<path d="M93.774 10.2968C93.777 10.2579 93.777 10.2188 93.774 10.1799C93.774 10.0975 93.774 9.98521 93.774 9.84089C93.774 9.76758 93.774 9.68282 93.7627 9.59118C93.7514 9.49955 93.7378 9.39875 93.7219 9.29337C93.7061 9.18799 93.6902 9.06428 93.6721 8.94287L93.577 8.55342C93.4087 7.88273 93.1333 7.24434 92.7616 6.66345C92.2219 5.80318 91.4944 5.07954 90.6349 4.54817C89.7755 4.01679 88.807 3.69183 87.804 3.59826C87.5028 3.57135 87.2001 3.56523 86.8981 3.57993C86.7463 3.57993 86.5901 3.57993 86.4451 3.60971L85.9786 3.68073C85.3384 3.80108 84.7189 4.01483 84.1395 4.3153C83.5347 4.63907 82.9787 5.0487 82.4885 5.53176C81.9866 6.04625 81.5671 6.63675 81.2451 7.28198C80.8987 7.94719 80.6717 8.66932 80.5748 9.41479C80.5465 9.60366 80.5306 9.79422 80.5272 9.98521C80.5121 10.1765 80.5083 10.3685 80.5159 10.5602C80.5651 11.7891 80.9449 12.9812 81.6143 14.008V13.937C81.2995 14.7319 80.9892 15.5131 80.6857 16.2737L80.6314 16.4134L80.7741 16.3722L83.2427 15.6849L83.1838 15.6712C84.0152 16.3078 84.9838 16.7364 86.0103 16.922C86.4865 17.0118 86.9718 17.0418 87.4552 17.0113C87.6884 17.0078 87.9209 16.9856 88.1505 16.9449L88.488 16.8922C88.5989 16.8716 88.7144 16.8372 88.8141 16.812C90.3354 16.4221 91.6697 15.4971 92.5782 14.2027C92.917 13.7259 93.1891 13.204 93.3867 12.6518C93.4298 12.5304 93.4705 12.4227 93.509 12.3036C93.5475 12.1845 93.5679 12.0745 93.5928 11.9714C93.6177 11.8683 93.6449 11.7629 93.6676 11.6667C93.6902 11.5705 93.697 11.4766 93.7106 11.3872C93.731 11.2108 93.7627 11.0551 93.7695 10.9291C93.7763 10.8031 93.7695 10.6816 93.7695 10.5854C93.7695 10.4892 93.7695 10.4296 93.7695 10.377C93.7695 10.3243 93.7695 10.3059 93.7695 10.3059C93.766 10.3295 93.766 10.3534 93.7695 10.377C93.7695 10.4296 93.7695 10.4984 93.7536 10.5854C93.7378 10.6725 93.74 10.7939 93.731 10.9268C93.7219 11.0596 93.6879 11.2154 93.6608 11.3849C93.4447 12.6528 92.8694 13.83 92.0046 14.7735C91.1398 15.717 90.0228 16.3862 88.7892 16.6998C88.6827 16.725 88.5763 16.757 88.4676 16.7777L88.1347 16.8281C87.91 16.866 87.6829 16.8867 87.4552 16.8899C86.9806 16.9152 86.5047 16.8837 86.0375 16.796C85.0349 16.6094 84.0895 16.1881 83.2767 15.5658L83.2495 15.5429H83.2155L80.7446 16.2301L80.8307 16.3286L81.7615 13.9942L81.7751 13.9576L81.7547 13.9232C81.3087 13.2407 80.9923 12.4802 80.8216 11.6805C80.7434 11.3094 80.6964 10.9324 80.6812 10.5533C80.6736 10.3662 80.6774 10.1788 80.6925 9.99209C80.6939 9.80564 80.7091 9.61957 80.7378 9.4354C80.8248 8.70742 81.0387 8.0008 81.3697 7.34842C81.6845 6.71784 82.0931 6.13991 82.5814 5.63484C83.061 5.16062 83.6056 4.75866 84.1984 4.4413C84.7649 4.14327 85.3715 3.931 85.999 3.81131L86.4519 3.74029C86.6037 3.71738 86.7554 3.71967 86.9049 3.70822C87.2001 3.69401 87.4959 3.69937 87.7904 3.72426C88.777 3.81161 89.7309 4.12521 90.5797 4.64124C91.4285 5.15728 92.1499 5.86217 92.6892 6.70239C93.0629 7.27315 93.3428 7.90134 93.5181 8.56258L93.62 8.94745C93.6404 9.06886 93.6585 9.17653 93.6766 9.29108C93.6947 9.40562 93.7083 9.49726 93.7242 9.58889C93.74 9.68053 93.7355 9.763 93.7423 9.83631C93.7423 9.97834 93.7604 10.0906 93.7672 10.1731C93.7629 10.2144 93.7652 10.2562 93.774 10.2968Z" fill="#263238"/>
<path d="M26.2354 37.3129H39.3146C39.3146 37.3129 39.3146 26.2045 50.727 26.0075C56.654 25.9021 59.7273 29.831 60.9775 32.8389C62.4269 36.3325 61.9876 40.314 60.0444 43.5556C57.8271 47.2553 53.0484 50.9734 44.2338 49.4019L44.15 78.8785H57.0843V61.4038C57.0843 61.4038 75.2231 56.6617 75.2231 36.4332C75.2231 17.0868 59.7567 12.9083 51.4426 12.638C46.8179 12.489 45.142 12.2874 39.4211 13.1099C32.1307 14.1637 26.0814 22.727 26.2354 37.3129Z" fill="#03989E"/>
<path d="M57.2407 85.0227H44.1139V97.4232H57.2407V85.0227Z" fill="#03989E"/>
<path opacity="0.1" d="M57.2407 85.0227H44.1139V97.4232H57.2407V85.0227Z" fill="black"/>
<path opacity="0.1" d="M26.2354 37.3129H39.3146C39.3146 37.3129 39.3146 26.2045 50.727 26.0075C56.654 25.9021 59.7273 29.831 60.9775 32.8389C62.4269 36.3325 61.9876 40.314 60.0444 43.5556C57.8271 47.2553 53.0484 50.9734 44.2338 49.4019L44.15 78.8785H57.0843V61.4038C57.0843 61.4038 75.2231 56.6617 75.2231 36.4332C75.2231 17.0868 59.7567 12.9083 51.4426 12.638C46.8179 12.489 45.142 12.2874 39.4211 13.1099C32.1307 14.1637 26.0814 22.727 26.2354 37.3129Z" fill="black"/>
<path d="M20.8158 37.3129H33.8973C33.8973 37.3129 33.8973 26.2044 45.3097 26.0074C51.2366 25.902 54.31 29.8309 55.5579 32.8388C57.0096 36.3324 56.5702 40.3139 54.627 43.5555C52.4098 47.2553 47.5473 50.6183 38.7327 49.0536V78.8785H51.667V61.4037C51.667 61.4037 69.8057 56.6616 69.8057 36.4332C69.8057 17.0868 52.6521 12.5944 45.3119 12.5944C39.6975 12.6012 20.569 13.9735 20.8158 37.3129Z" fill="#03989E"/>
<path opacity="0.3" d="M20.8158 37.3129H33.8973C33.8973 37.3129 33.8973 26.2044 45.3097 26.0074C51.2366 25.902 54.31 29.8309 55.5579 32.8388C57.0096 36.3324 56.5702 40.3139 54.627 43.5555C52.4098 47.2553 47.5473 50.6183 38.7327 49.0536V78.8785H51.667V61.4037C51.667 61.4037 69.8057 56.6616 69.8057 36.4332C69.8057 17.0868 52.6521 12.5944 45.3119 12.5944C39.6975 12.6012 20.569 13.9735 20.8158 37.3129Z" fill="black"/>
<path d="M51.8232 85.0227H38.6964V97.4232H51.8232V85.0227Z" fill="#03989E"/>
<path opacity="0.3" d="M51.8232 85.0227H38.6964V97.4232H51.8232V85.0227Z" fill="black"/>
<path d="M46.7863 26.067C46.7215 26.0726 46.6563 26.0726 46.5915 26.067C46.4624 26.067 46.2767 26.0234 46.0344 26.0212C45.3492 25.9871 44.6624 26.0162 43.9825 26.1082C42.9742 26.2373 41.982 26.473 41.0224 26.8115C40.4566 27.0115 39.9057 27.2519 39.3736 27.5308C38.7985 27.8215 38.2569 28.1757 37.7588 28.5869C37.2641 29.0018 36.8208 29.4757 36.4384 29.9981C36.076 30.4811 35.7454 30.9877 35.4487 31.5147C34.9534 32.4121 34.5606 33.3636 34.2778 34.3508C34.0861 35.017 33.9542 35.6994 33.8837 36.3896C33.8565 36.6325 33.8497 36.8249 33.8429 36.9532C33.8431 37.0193 33.837 37.0853 33.8248 37.1502C33.819 37.0847 33.819 37.0187 33.8248 36.9532C33.8248 36.8226 33.8248 36.6302 33.8452 36.3851C33.8973 35.6874 34.0179 34.9967 34.2053 34.3233C34.4777 33.3247 34.8654 32.362 35.3604 31.4551C35.6576 30.9224 35.9898 30.4104 36.3546 29.9225C36.7402 29.3915 37.189 28.9106 37.6908 28.4907C38.195 28.0739 38.7434 27.715 39.326 27.4209C39.8614 27.1368 40.4162 26.8918 40.9861 26.6878C41.9545 26.3506 42.9561 26.1202 43.9734 26.0005C44.6579 25.9155 45.349 25.8993 46.0366 25.9524C46.2235 25.9645 46.4095 25.9875 46.5938 26.0212C46.6589 26.0318 46.7232 26.0471 46.7863 26.067Z" fill="#263238"/>
<path d="M66.4946 23.7097C66.4946 23.7097 66.4788 23.6937 66.4516 23.6593C66.4244 23.625 66.3836 23.5654 66.3384 23.499L65.9058 22.8804C65.8129 22.7475 65.7133 22.5941 65.5955 22.436L65.1878 21.9343L64.7213 21.3547C64.5514 21.1531 64.3521 20.9584 64.1528 20.7453C63.9535 20.5323 63.7497 20.3055 63.5187 20.0878C63.2877 19.8702 63.0408 19.648 62.7871 19.4189C62.6603 19.3044 62.5357 19.1898 62.3999 19.0684L61.9786 18.7316C61.691 18.5026 61.4056 18.2735 61.0953 18.0444C59.7429 17.0656 58.3084 16.2086 56.8081 15.4832L55.6145 14.938L54.43 14.4798C54.0427 14.3171 53.6487 14.2026 53.2682 14.0743C52.8877 13.946 52.5163 13.8154 52.1358 13.7261L51.0532 13.4397C50.7022 13.3458 50.3534 13.2885 50.0205 13.2106C49.6875 13.1328 49.3659 13.064 49.0511 13.0251L48.1452 12.8922C47.5722 12.7937 47.0468 12.7731 46.5893 12.7273C46.3628 12.7089 46.1363 12.6837 45.9483 12.6746L45.4093 12.6608L44.6619 12.6356H44.4672H44.4015C44.4233 12.6322 44.4454 12.6322 44.4672 12.6356H44.6619H45.4093H45.9506C46.1476 12.6356 46.3628 12.6631 46.5938 12.6792C47.0468 12.7181 47.5813 12.7341 48.1543 12.8281L49.0602 12.9518C49.375 12.9884 49.6966 13.0709 50.0318 13.1328C50.367 13.1946 50.7112 13.2588 51.0713 13.3618L52.1584 13.6459C52.5344 13.733 52.9058 13.875 53.2908 13.9918C53.6758 14.1087 54.0677 14.2209 54.4549 14.395L55.6462 14.8532L56.8466 15.4007C58.3548 16.1278 59.795 16.9912 61.1497 17.9802C61.4622 18.2093 61.7476 18.4545 62.0352 18.6812L62.4565 18.9905C62.5924 19.1051 62.7169 19.2196 62.8438 19.3433L63.573 20.0306C63.7995 20.2597 64.0033 20.4887 64.2049 20.6972C64.4065 20.9057 64.599 21.1096 64.7688 21.3135L65.2218 21.8976L65.6249 22.4062C65.7404 22.5666 65.8378 22.7223 65.9284 22.8644C66.1051 23.1324 66.2432 23.3432 66.3406 23.4944L66.4471 23.6616C66.4649 23.6755 66.4809 23.6917 66.4946 23.7097Z" fill="#263238"/>
<path d="M65.1312 52.1166C65.1042 52.1662 65.0715 52.2123 65.0338 52.254L64.7212 52.6274C64.5921 52.7947 64.4291 52.994 64.2275 53.2162C64.0259 53.4384 63.8108 53.6996 63.5481 53.9699C63.2853 54.2402 63.0045 54.5426 62.6852 54.8473C62.3658 55.152 62.0193 55.4727 61.6502 55.8072C60.031 57.2367 58.256 58.4749 56.3596 59.4978C55.9202 59.7269 55.5058 59.9559 55.1049 60.1323C54.704 60.3087 54.3303 60.4897 53.9861 60.6363C53.6418 60.783 53.3247 60.9044 53.0484 61.012C52.7721 61.1197 52.5298 61.2068 52.3305 61.2709L51.8775 61.4198C51.825 61.4409 51.7703 61.4563 51.7145 61.4656C51.7633 61.4374 51.8149 61.4143 51.8685 61.3969L52.3214 61.2274C52.5185 61.1564 52.7563 61.0647 53.0303 60.9502C53.3044 60.8356 53.6214 60.7211 53.9612 60.5584C54.3009 60.3958 54.6768 60.2423 55.0686 60.043C55.4605 59.8437 55.8794 59.6329 56.3166 59.4016C57.1794 58.9205 58.1103 58.3569 59.0502 57.7063C59.9901 57.0557 60.8348 56.3707 61.5867 55.7247C61.9559 55.3948 62.3092 55.0856 62.624 54.774C62.9388 54.4624 63.2332 54.1807 63.4937 53.9103C63.7542 53.64 63.9829 53.3903 64.1867 53.1704C64.3906 52.9505 64.5582 52.758 64.694 52.5977L65.0111 52.2334C65.0479 52.1912 65.0881 52.1522 65.1312 52.1166Z" fill="#263238"/>
<path d="M51.4381 77.8385C51.4041 77.8385 51.377 74.1594 51.377 69.6211C51.377 65.0829 51.4041 61.4015 51.4381 61.4015C51.4721 61.4015 51.497 65.0806 51.497 69.6211C51.497 74.1617 51.4698 77.8385 51.4381 77.8385Z" fill="#263238"/>
<path d="M51.9364 96.5824C51.9025 96.5824 51.8776 94.0006 51.8776 90.8163C51.8776 87.632 51.9025 85.0479 51.9364 85.0479C51.9704 85.0479 51.9953 87.6297 51.9953 90.8163C51.9953 94.0029 51.9682 96.5824 51.9364 96.5824Z" fill="#263238"/>
<path d="M64.8116 35.5558C64.5851 36.014 65.4299 36.3897 65.9168 36.5386C66.4136 36.6619 66.9277 36.6976 67.4365 36.6439C68.116 36.6073 68.8112 36.5431 69.3978 36.2041C69.9115 35.8822 70.3221 35.4167 70.5801 34.8639C70.8344 34.3129 71.0354 33.7383 71.1802 33.1481C71.1802 33.1481 65.8285 33.5009 64.8116 35.5558Z" fill="#03989E"/>
<g opacity="0.4">
<path d="M64.8116 35.5558C64.5851 36.014 65.4299 36.3897 65.9168 36.5386C66.4136 36.6619 66.9277 36.6976 67.4365 36.6439C68.116 36.6073 68.8112 36.5431 69.3978 36.2041C69.9115 35.8822 70.3221 35.4167 70.5801 34.8639C70.8344 34.3129 71.0354 33.7383 71.1802 33.1481C71.1802 33.1481 65.8285 33.5009 64.8116 35.5558Z" fill="black"/>
</g>
<path d="M79.9269 34.0896C80.8092 34.7227 81.8665 35.0578 82.9481 35.0472C83.4667 35.0764 83.9779 34.9136 84.3863 34.5891C84.5607 34.4264 84.692 34.2202 84.871 34.0644C84.9933 33.9591 85.1359 33.8789 85.2514 33.7666C85.3124 33.7135 85.3594 33.646 85.3883 33.57C85.4171 33.4941 85.4269 33.4121 85.4168 33.3314C85.3721 33.1324 85.2619 32.9547 85.1042 32.8274C84.4905 32.4746 83.7567 32.4883 83.0501 32.5044C82.3429 32.5353 81.6443 32.6736 80.9778 32.9144C80.4297 33.1023 79.8567 33.3726 79.5781 33.8766" fill="#03989E"/>
<g opacity="0.4">
<path d="M85.4168 33.3313C85.3367 33.1381 85.1958 32.977 85.0159 32.8732C84.4021 32.5204 83.7567 32.4883 83.0501 32.5043C82.3429 32.5353 81.6443 32.6735 80.9778 32.9144C80.4297 33.1022 79.8567 33.3726 79.5781 33.8766L79.9269 34.0896C80.8092 34.7226 81.8665 35.0577 82.9481 35.0472C83.4667 35.0764 83.9779 34.9135 84.3863 34.589C84.5607 34.4264 84.692 34.2202 84.871 34.0644C84.9933 33.959 85.1359 33.8788 85.2514 33.7666C85.3124 33.7135 85.3594 33.646 85.3883 33.57C85.4171 33.4941 85.4269 33.4121 85.4168 33.3313Z" fill="black"/>
</g>
<path d="M69.4772 42.3115L80.7672 42.4627C80.7902 42.4626 80.8129 42.4571 80.8334 42.4466C80.8539 42.4361 80.8717 42.4209 80.8853 42.4022C80.899 42.3835 80.9081 42.3618 80.912 42.3389C80.9159 42.316 80.9144 42.2925 80.9077 42.2703L79.5827 38.0917C79.5827 38.0917 79.7775 36.0024 80.047 33.4916C80.457 29.6773 81.0028 24.8825 81.0096 24.8963C80.2373 22.7062 75.6805 22.3351 75.6805 22.3351L70.4873 22.6466L70.3061 22.3374L68.8114 23.0407C68.4853 23.1941 68.1718 23.3733 67.8737 23.5767C66.8863 24.2434 64.5082 25.776 64.0734 27.4827C63.0701 31.4344 64.7687 35.8444 64.7687 35.8444L65.8603 34.9807C66.1353 34.7664 66.4243 34.5712 66.7255 34.3965L68.9133 40.3276C68.7831 40.4106 68.6728 40.522 68.5906 40.6536C68.5083 40.7851 68.456 40.9336 68.4377 41.0882C68.4195 41.5693 68.6641 42.1466 69.4772 42.3115Z" fill="#03989E"/>
<g opacity="0.3">
<path d="M74.3216 35.3199C74.6794 33.3726 74.4914 31.3704 74.2989 29.4003C73.6738 31.0039 73.6965 32.8366 73.0329 34.4264C72.9516 34.5943 72.8922 34.7722 72.8563 34.9556C72.839 35.0477 72.8435 35.1427 72.8695 35.2327C72.8954 35.3227 72.9421 35.4052 73.0057 35.4734C73.1869 35.6406 73.4587 35.549 73.6988 35.5215C73.9137 35.48 74.1228 35.4123 74.3216 35.3199Z" fill="black"/>
</g>
<g opacity="0.4">
<path d="M70.1567 39.8283C71.0626 40.1468 72.0274 39.5534 72.9855 39.448C73.6196 39.3793 74.2537 39.5259 74.8834 39.629C76.1565 39.8374 77.4517 39.8697 78.7335 39.7252C78.9302 39.7143 79.1227 39.6637 79.2997 39.5763C79.3912 39.5133 79.466 39.4285 79.5177 39.3295C79.5695 39.2305 79.5965 39.1202 79.5964 39.0082C77.463 38.7791 75.3318 38.6554 73.1983 38.4332C72.6673 38.3415 72.1234 38.3595 71.5994 38.4859C70.9562 38.6875 70.467 39.1983 70.014 39.7046" fill="black"/>
</g>
<path d="M85.0907 32.5799C84.1689 30.4792 80.9189 24.6696 80.9189 24.6696L78.4027 27.8607L78.9893 34.1263C78.9893 34.1263 80.3187 32.6258 84.0353 32.596C84.3054 32.6069 84.5696 32.6788 84.8087 32.8065C85.0477 32.9341 85.2555 33.1142 85.4168 33.3336L85.0907 32.5799Z" fill="#03989E"/>
<path d="M69.9822 31.4688C69.8027 31.0234 69.6603 30.5637 69.5564 30.0943C69.4158 29.6371 69.3127 29.1689 69.2484 28.6946C69.4253 29.1407 69.5669 29.6003 69.6719 30.0691C69.8126 30.5264 69.9164 30.9945 69.9822 31.4688Z" fill="#263238"/>
<path d="M78.2125 27.437C78.2944 27.4956 78.3703 27.5624 78.439 27.6363C78.6391 27.8318 78.8267 28.0399 79.0007 28.2594C79.5863 28.9835 79.9979 29.8351 80.2033 30.7473C80.3099 31.2516 80.3336 31.7702 80.2735 32.2822C80.2169 32.7518 80.1285 33.1642 80.0696 33.5124C80.0108 33.8606 79.9745 34.1447 79.9564 34.3417C79.9559 34.4441 79.9453 34.5462 79.9247 34.6464C79.9087 34.5441 79.9041 34.4404 79.9111 34.3371C79.9211 34.0564 79.9468 33.7764 79.9881 33.4987C80.0357 33.1482 80.1149 32.7312 80.167 32.2708C80.2194 31.7703 80.1927 31.2645 80.0878 30.7725C79.8849 29.8774 79.4915 29.0377 78.935 28.3121C78.5205 27.7486 78.1944 27.4553 78.2125 27.437Z" fill="#263238"/>
<path d="M75.9069 41.8076C75.8282 41.8431 75.7452 41.8677 75.66 41.8809C75.5633 41.9067 75.4649 41.9259 75.3656 41.9382C75.2501 41.9542 75.1187 41.9794 74.9715 41.9863C74.6265 42.0183 74.2793 42.0183 73.9342 41.9863C73.5121 41.9424 73.095 41.858 72.6886 41.7343C72.2843 41.6028 71.893 41.4333 71.52 41.228C71.2175 41.0573 70.9303 40.8603 70.6616 40.6392C70.5438 40.5476 70.4487 40.4514 70.3626 40.3712C70.2884 40.3036 70.2181 40.2317 70.152 40.1559C70.089 40.0969 70.0349 40.029 69.9912 39.9543C70.0071 39.9382 70.2494 40.2131 70.7137 40.5728C70.9849 40.7816 71.2719 40.9685 71.572 41.1318C71.9409 41.3278 72.3258 41.4911 72.7226 41.6197C73.122 41.7415 73.5312 41.8273 73.9456 41.8763C74.284 41.9132 74.6247 41.9239 74.9647 41.9084C75.5468 41.8763 75.9023 41.7893 75.9069 41.8076Z" fill="#263238"/>
<path d="M79.3925 40.5063C79.4458 40.6099 79.476 40.7241 79.4809 40.8408C79.517 41.1201 79.4962 41.4039 79.4197 41.6747C79.3419 41.9517 79.1842 42.199 78.9667 42.3849C78.8014 42.5246 78.6746 42.5681 78.6678 42.5567C78.661 42.5452 78.7674 42.4696 78.9101 42.3276C79.0933 42.1343 79.2264 41.8982 79.2974 41.6403C79.4786 41.0355 79.3495 40.5086 79.3925 40.5063Z" fill="#263238"/>
<path d="M78.7787 41.3127C78.8278 41.5484 78.8082 41.7934 78.7221 42.0179C78.6361 42.2424 78.4873 42.4368 78.294 42.5773C78.2691 42.5521 78.4797 42.3253 78.6111 41.9748C78.7424 41.6243 78.7447 41.315 78.7787 41.3127Z" fill="#263238"/>
<path d="M76.7586 33.7759C76.6386 33.9811 76.5039 34.1771 76.3554 34.3623C76.2384 34.5693 76.1059 34.7668 75.9591 34.9534C76.0026 34.7116 76.1054 34.4848 76.2581 34.2936C76.3788 34.0809 76.551 33.9027 76.7586 33.7759Z" fill="#263238"/>
<path d="M69.0083 28.2273C68.8358 28.1248 68.6687 28.0132 68.5078 27.8928C67.7023 27.3576 66.7882 27.0123 65.8331 26.8826C65.6331 26.8678 65.4342 26.8411 65.2374 26.8024C65.438 26.7744 65.6415 26.7744 65.8421 26.8024C66.8233 26.8871 67.763 27.2412 68.5599 27.8264C68.727 27.9384 68.878 28.0733 69.0083 28.2273Z" fill="#263238"/>
<path d="M80.9189 24.594C80.5135 24.9242 80.1349 25.2865 79.7865 25.6776C79.4657 26.0949 79.1786 26.5377 78.9281 27.0017C78.9549 26.8457 79.0078 26.6954 79.0844 26.5573C79.2483 26.2138 79.4537 25.8921 79.6959 25.5997C79.9387 25.3078 80.2172 25.0484 80.5248 24.8277C80.6419 24.7274 80.7752 24.6483 80.9189 24.594Z" fill="#263238"/>
<path d="M76.258 22.7063C76.2786 22.7393 76.2954 22.7747 76.3079 22.8117C76.352 22.9154 76.3876 23.0227 76.4143 23.1324C76.5098 23.5407 76.5098 23.9658 76.4143 24.3741C76.2733 24.9835 75.9508 25.5345 75.4903 25.9525C74.909 26.4506 74.1683 26.7177 73.4066 26.7039C72.6443 26.7065 71.9015 26.4598 71.2891 26.0006C70.8011 25.6237 70.4051 25.1386 70.1317 24.5825C69.9476 24.2102 69.8179 23.8128 69.7467 23.4027C69.7259 23.2923 69.7123 23.1805 69.706 23.0683C69.6996 23.0288 69.6996 22.9886 69.706 22.9491C69.706 22.9491 69.7309 23.1095 69.7943 23.3936C69.8823 23.7921 70.0217 24.1772 70.2087 24.539C70.485 25.0783 70.8774 25.548 71.357 25.9135C71.9471 26.3556 72.661 26.5963 73.3953 26.6008C74.1295 26.6144 74.844 26.3608 75.4087 25.886C75.8536 25.4834 76.1692 24.9552 76.3146 24.3695C76.4154 23.9741 76.4293 23.5613 76.3554 23.1599C76.3124 22.8575 76.2444 22.7109 76.258 22.7063Z" fill="#263238"/>
<g opacity="0.3">
<path d="M77.0507 34.1813C77.0507 34.0668 77.0326 33.9316 76.933 33.8744C76.9014 33.8582 76.8665 33.8499 76.8311 33.8499C76.7957 33.8499 76.7607 33.8582 76.7291 33.8744C76.6658 33.909 76.6097 33.9557 76.5638 34.0118C76.2975 34.2921 76.0916 34.6252 75.9591 34.99L77.0689 34.8915C77.0621 34.6601 77.0575 34.4173 77.0507 34.1813Z" fill="black"/>
</g>
<g opacity="0.3">
<path d="M80.7355 31.8194C80.6239 31.1771 80.3457 30.5762 79.9292 30.0784C80.4093 31.6637 80.2485 32.5594 79.979 33.6453L80.0379 33.4941C80.3482 32.8595 80.8193 32.4609 80.7355 31.8194Z" fill="black"/>
</g>
<path d="M78.5183 85.073L77.8411 95.3476L73.4248 95.2949L72.7295 84.6125L78.5183 85.073Z" fill="#FFBE9D"/>
<path d="M77.9656 93.996V94.2938C77.9656 94.2938 82.9482 96.3189 82.9957 97.2719L73.1008 97.2169L73.2548 93.8883C74.7292 94.587 76.2716 94.6741 77.9656 93.996Z" fill="#03989E"/>
<path d="M74.2581 94.9558C74.1642 94.9846 74.0839 95.047 74.0322 95.1313C73.9805 95.2156 73.961 95.3162 73.9773 95.414C74.0015 95.5117 74.0622 95.5962 74.1467 95.6496C74.2312 95.703 74.3328 95.7212 74.4303 95.7004C74.531 95.6699 74.617 95.6026 74.6714 95.5116C74.7259 95.4205 74.7448 95.3123 74.7247 95.2078C74.6888 95.1089 74.6162 95.028 74.5224 94.9822C74.4285 94.9365 74.3208 94.9295 74.2219 94.9627" fill="white"/>
<path d="M73.1008 97.217L73.1371 96.4175L82.613 96.7657C82.613 96.7657 83.0524 96.9627 83.0003 97.2743L73.1008 97.217Z" fill="#263238"/>
<path d="M78.0019 94.3213C78.0019 94.3694 77.7573 94.39 77.5195 94.5503C77.2817 94.7107 77.1526 94.91 77.1096 94.8917C77.0665 94.8734 77.139 94.5893 77.4312 94.406C77.7233 94.2228 78.0132 94.2686 78.0019 94.3213Z" fill="#263238"/>
<path d="M79.0369 94.7612C79.0483 94.8094 78.8376 94.8895 78.6723 95.0957C78.507 95.3019 78.4594 95.5195 78.4096 95.5172C78.3598 95.5149 78.3326 95.2378 78.5432 94.988C78.7538 94.7383 79.0347 94.7269 79.0369 94.7612Z" fill="#263238"/>
<path d="M79.6191 96.0211C79.5738 96.0211 79.5081 95.792 79.6349 95.5194C79.7617 95.2468 79.986 95.1483 80.0063 95.1873C80.0267 95.2262 79.8863 95.3705 79.7799 95.5927C79.6734 95.8149 79.6689 96.0165 79.6191 96.0211Z" fill="#263238"/>
<path d="M77.7121 9.93018C77.968 9.28873 77.6577 8.51213 77.1074 8.09748C76.5274 7.71127 75.8201 7.57214 75.1393 7.71032C74.4676 7.85278 73.8173 8.08384 73.2051 8.39758C72.9205 8.10718 72.5616 7.90253 72.1686 7.80648C71.7756 7.71044 71.364 7.72678 70.9796 7.85367C70.5953 7.98057 70.2534 8.21303 69.9921 8.5251C69.7308 8.83716 69.5604 9.21656 69.4999 9.62091C69.255 9.55856 68.998 9.56484 68.7564 9.63906C68.5148 9.71328 68.2977 9.85265 68.1285 10.0422C67.9592 10.2318 67.8442 10.4644 67.7957 10.715C67.7473 10.9657 67.7672 11.225 67.8534 11.4651L70.9154 12.5532L74.2583 18.5095C74.7523 18.9358 75.3828 19.1658 76.0322 19.1565C76.6815 19.1472 77.3053 18.8992 77.7872 18.4589C78.2691 18.0186 78.5762 17.416 78.6511 16.7635C78.7261 16.111 78.5638 15.4532 78.1945 14.9128C78.3818 14.7443 78.5409 14.5463 78.6656 14.3264C78.9327 14.1666 79.1658 13.9547 79.3512 13.703C79.5367 13.4513 79.6708 13.1648 79.7459 12.8602C80.0426 11.5338 79.0279 10.086 77.7121 9.93018Z" fill="#263238"/>
<path d="M75.685 22.3352C75.4948 21.3662 75.3634 20.7018 75.3657 20.7087C75.3679 20.7156 77.1775 19.9985 77.0462 17.4488C76.9827 16.1796 76.5049 14.1797 76.061 12.5578C75.6624 11.0962 74.3148 9.48569 72.8902 9.95074L68.5713 12.0812C68.1387 12.2233 68.064 12.6356 68.1659 13.0824V13.3114L69.8441 20.3353L70.553 23.4738C70.7041 24.1182 71.0882 24.6821 71.6298 25.0544C72.1714 25.4266 72.8311 25.5803 73.4791 25.4851C73.833 25.4348 74.173 25.3118 74.4782 25.1238C74.7834 24.9357 75.0474 24.6866 75.2539 24.3916C75.4605 24.0966 75.6053 23.7621 75.6794 23.4084C75.7536 23.0548 75.7555 22.6896 75.685 22.3352Z" fill="#FFBE9D"/>
<path d="M76.0451 14.253C76.0632 14.3343 76.0499 14.4196 76.0077 14.4912C75.9656 14.5628 75.8979 14.6153 75.8186 14.6379C75.7786 14.6492 75.7367 14.6522 75.6955 14.6467C75.6543 14.6412 75.6147 14.6274 75.5789 14.6059C75.5431 14.5845 75.512 14.556 75.4874 14.5222C75.4629 14.4883 75.4453 14.4497 75.4358 14.4088C75.4177 14.3278 75.4312 14.2429 75.4733 14.1716C75.5155 14.1004 75.5832 14.0483 75.6623 14.0262C75.7022 14.0146 75.744 14.0112 75.7852 14.0164C75.8263 14.0216 75.8661 14.0352 75.9019 14.0565C75.9377 14.0777 75.9688 14.106 75.9935 14.1398C76.0181 14.1736 76.0356 14.2121 76.0451 14.253Z" fill="#263238"/>
<path d="M75.848 13.765C75.8163 13.8154 75.5422 13.6894 75.2071 13.765C74.8719 13.8405 74.659 14.0605 74.6137 14.0261C74.5684 13.9917 74.6137 13.9276 74.7065 13.8268C74.8311 13.6936 74.9932 13.6024 75.1708 13.5656C75.346 13.5274 75.5287 13.5475 75.6917 13.6229C75.8185 13.6756 75.8616 13.7443 75.848 13.765Z" fill="#263238"/>
<path d="M72.7567 15.0044C72.7748 15.0854 72.7613 15.1703 72.7192 15.2416C72.677 15.3128 72.6093 15.3649 72.5302 15.387C72.4911 15.3985 72.4501 15.4021 72.4096 15.3975C72.3692 15.3928 72.33 15.3802 72.2944 15.3601C72.2588 15.3401 72.2275 15.3131 72.2022 15.2808C72.177 15.2484 72.1584 15.2113 72.1474 15.1717C72.1293 15.0904 72.1426 15.0051 72.1848 14.9335C72.2269 14.8619 72.2946 14.8094 72.3739 14.7868C72.4132 14.7753 72.4543 14.7718 72.4949 14.7766C72.5355 14.7814 72.5747 14.7942 72.6104 14.8145C72.646 14.8348 72.6773 14.862 72.7024 14.8946C72.7275 14.9272 72.746 14.9645 72.7567 15.0044Z" fill="#263238"/>
<path d="M72.5913 14.5737C72.5618 14.6241 72.2855 14.4958 71.9503 14.5737C71.6152 14.6516 71.4023 14.8669 71.357 14.8348C71.3117 14.8028 71.357 14.7363 71.4498 14.6332C71.575 14.5012 71.7369 14.411 71.9141 14.3744C72.0891 14.3367 72.2714 14.356 72.435 14.4293C72.555 14.4843 72.6071 14.5462 72.5913 14.5737Z" fill="#263238"/>
<path d="M74.2967 16.7271C74.4627 16.6345 74.6391 16.5622 74.8221 16.5118C74.9059 16.4843 74.9852 16.4499 74.9874 16.3881C74.9756 16.297 74.9369 16.2116 74.8765 16.1429L74.4846 15.5336C73.9366 14.6653 73.5198 13.946 73.5538 13.93C73.5878 13.9139 74.0611 14.5943 74.6092 15.4626L74.992 16.0765C75.0672 16.1705 75.108 16.2878 75.1075 16.4087C75.1007 16.4416 75.0869 16.4727 75.0669 16.4996C75.0469 16.5265 75.0214 16.5487 74.992 16.5645C74.9477 16.5882 74.9004 16.6059 74.8516 16.6172C74.6724 16.6792 74.4857 16.7162 74.2967 16.7271Z" fill="#263238"/>
<path d="M75.3657 20.7086C74.2202 20.9705 73.0253 20.9054 71.9142 20.5208C71.9142 20.5208 73.1009 22.0877 75.4948 21.3386L75.3657 20.7086Z" fill="#EB996E"/>
<path d="M72.648 14.088C72.6253 14.1865 72.2788 14.1842 71.8847 14.2827C71.4906 14.3813 71.1781 14.5302 71.1147 14.4523C71.0875 14.4156 71.1328 14.3194 71.2528 14.2232C71.4124 14.0873 71.6019 13.9922 71.8054 13.946C72.0072 13.8976 72.2174 13.8976 72.4192 13.946C72.58 13.9758 72.6638 14.0422 72.648 14.088Z" fill="#263238"/>
<path d="M75.719 12.6838C75.6646 12.7754 75.3747 12.7525 75.0395 12.8189C74.7043 12.8854 74.4394 12.9999 74.3601 12.9335C74.3238 12.8991 74.3601 12.8121 74.4575 12.7044C74.607 12.5772 74.7878 12.4933 74.9806 12.4616C75.1703 12.4229 75.3668 12.4372 75.5491 12.5028C75.6873 12.5669 75.7416 12.638 75.719 12.6838Z" fill="#263238"/>
<path d="M69.638 10.4409C69.6881 10.6891 69.7916 10.9231 69.9412 11.1262C70.0908 11.3293 70.2828 11.4966 70.5035 11.6162C70.7243 11.7359 70.9683 11.8048 71.2184 11.8183C71.4684 11.8317 71.7183 11.7893 71.9504 11.694C72.3082 11.5474 72.6796 11.2725 73.042 11.4054C73.4044 11.5383 73.5538 12.0606 73.9004 12.2553C74.4099 12.5439 75.0328 12.0445 75.6012 12.0949C76.0542 12.1339 76.3962 12.4844 76.7472 12.7822C77.0983 13.08 77.5829 13.3045 77.9793 13.0892C77.8885 12.7066 77.754 12.336 77.5784 11.985C77.4013 11.6315 77.1083 11.3514 76.7495 11.1923C76.5502 11.1121 76.335 11.0847 76.1448 10.9862C75.7348 10.7754 75.5514 10.2989 75.2547 9.93922C75.0599 9.71257 74.8144 9.53616 74.5387 9.42461C74.263 9.31305 73.965 9.26958 73.6693 9.29778C73.1802 9.34818 72.7159 9.59788 72.2221 9.57726C71.8575 9.56123 71.5087 9.39629 71.1441 9.40316C70.4352 9.40316 69.903 10.0446 69.5089 10.6425" fill="#263238"/>
<path d="M72.025 10.9656C71.6989 10.9404 71.033 10.8716 70.8134 10.638C70.5902 10.3855 70.3053 10.1967 69.9874 10.0906C69.6694 9.98442 69.3294 9.96463 69.0015 10.0332C68.6761 10.1313 68.3905 10.3325 68.1866 10.6072C67.9827 10.8818 67.8715 11.2154 67.8691 11.5589C67.4728 11.6567 67.11 11.861 66.819 12.1501C66.528 12.4392 66.3196 12.8024 66.2158 13.2014C66.1104 13.6192 66.1068 14.0565 66.2055 14.4759C66.3041 14.8953 66.5019 15.2842 66.782 15.6092C66.9181 15.7812 67.0422 15.9627 67.1534 16.1521C66.9999 16.3448 66.8649 16.5519 66.7503 16.7706C66.2317 17.9298 67.6381 18.3742 67.6381 18.3742C67.6381 19.1531 68.3515 19.1486 68.8067 19.1463C69.262 19.144 69.5134 20.3742 69.8689 20.3261L69.5088 16.5301C69.5616 16.5508 69.6176 16.5617 69.6742 16.5622C70.5325 16.5782 70.3083 14.9333 70.032 14.5004C70.2877 14.1784 70.5037 13.826 70.6752 13.4512C70.8307 12.8781 70.8416 12.2748 70.7069 11.6963C70.9945 11.6597 72.1654 10.9747 72.025 10.9656Z" fill="#263238"/>
<path d="M69.6222 16.7318C69.5929 16.6112 69.5339 16.5001 69.4508 16.4087C69.3676 16.3174 69.2628 16.2488 69.1464 16.2095C69.0299 16.1702 68.9055 16.1613 68.7848 16.1837C68.664 16.2062 68.5508 16.2592 68.4558 16.3378C68.2293 16.5348 68.1093 16.8647 68.2452 17.4168C68.6121 18.8921 70.0004 18.2163 69.9913 18.1751C69.9823 18.1338 69.7807 17.3412 69.6222 16.7318Z" fill="#FFBE9D"/>
<path d="M69.407 17.7282C69.407 17.7282 69.3866 17.7534 69.3481 17.7832C69.2946 17.8248 69.2272 17.8436 69.1601 17.8359C68.9926 17.8176 68.8 17.6068 68.7276 17.3388C68.693 17.2136 68.6861 17.0822 68.7072 16.9539C68.7095 16.9041 68.7237 16.8556 68.7485 16.8125C68.7733 16.7694 68.8081 16.7331 68.8499 16.7065C68.8774 16.6915 68.9092 16.6867 68.9398 16.693C68.9704 16.6993 68.9979 16.7162 69.0175 16.7409C69.0469 16.7752 69.0446 16.8073 69.0537 16.8096C69.0628 16.8119 69.0786 16.7752 69.0537 16.718C69.0363 16.684 69.0085 16.6567 68.9744 16.6401C68.9265 16.6205 68.8729 16.6205 68.825 16.6401C68.7681 16.6674 68.7189 16.7088 68.6821 16.7605C68.6453 16.8121 68.622 16.8724 68.6143 16.9356C68.585 17.0799 68.5904 17.2292 68.6302 17.3709C68.6555 17.5039 68.719 17.6264 68.8129 17.723C68.9068 17.8196 69.0268 17.886 69.1579 17.9138C69.2005 17.9156 69.243 17.9076 69.2822 17.8906C69.3214 17.8735 69.3563 17.8478 69.3844 17.8153C69.4138 17.7649 69.4138 17.7305 69.407 17.7282Z" fill="#EB996E"/>
<path d="M77.4425 14.6721C77.4425 14.6721 77.5761 14.5691 77.7619 14.34C78.0181 14.0099 78.1753 13.6123 78.2148 13.1945C78.2448 12.9093 78.2171 12.6209 78.1333 12.3469C78.0365 12.0326 77.8573 11.7507 77.6146 11.5314C77.3345 11.2839 76.9952 11.1148 76.6305 11.0408C76.2658 10.9669 75.8884 10.9907 75.5356 11.1098C75.4676 11.1327 75.4042 11.1671 75.3408 11.1946C75.2774 11.2221 75.2208 11.2633 75.1619 11.2977L75.0713 11.3481V11.2473C75.0693 11.0698 75.0042 10.899 74.8878 10.7662C74.7686 10.6373 74.6223 10.5371 74.4598 10.473C74.1522 10.3433 73.8114 10.3176 73.4882 10.3997C72.8631 10.544 72.3331 10.8326 71.8326 10.8922C71.4401 10.9612 71.0363 10.8795 70.7002 10.6631C70.6115 10.6014 70.5347 10.5237 70.4737 10.434C70.4375 10.3722 70.4194 10.3378 70.4239 10.3355C70.506 10.4486 70.6063 10.547 70.7206 10.6265C71.0512 10.8195 71.4397 10.8854 71.8145 10.812C72.0753 10.7624 72.3303 10.6856 72.5755 10.5829C72.8633 10.4666 73.1583 10.3694 73.4587 10.292C73.6262 10.251 73.7984 10.2333 73.9706 10.2393C74.1523 10.249 74.3309 10.2909 74.4983 10.363C74.6715 10.4379 74.8261 10.5505 74.9512 10.6929C75.0852 10.848 75.1606 11.046 75.1641 11.2519L75.0735 11.2015L75.2615 11.0915C75.3317 11.064 75.3974 11.0274 75.4699 11.0022C75.8417 10.8734 76.2406 10.8464 76.6261 10.9241C77.0115 11.0017 77.3698 11.1812 77.6645 11.4443C77.9192 11.6776 78.1056 11.9771 78.2035 12.3103C78.3051 12.6633 78.3188 13.0364 78.2433 13.3961C78.1679 13.7559 78.0056 14.0911 77.7709 14.372C77.6963 14.4581 77.6119 14.535 77.5195 14.6011C77.4968 14.6279 77.4709 14.6517 77.4425 14.6721Z" fill="#455A64"/>
<path d="M77.1481 9.49254C76.9994 9.41619 76.8408 9.36144 76.677 9.32989C76.4898 9.304 76.2991 9.32202 76.1199 9.38258C75.8877 9.45442 75.686 9.60281 75.5469 9.8041L75.4903 9.88428L75.4563 9.79265C75.338 9.51103 75.1477 9.26641 74.9048 9.084C74.662 8.90158 74.3755 8.78798 74.0748 8.75488C73.6025 8.73691 73.137 8.87349 72.7476 9.14433C72.4158 9.3631 72.063 9.54732 71.6945 9.69414C71.4404 9.79134 71.1668 9.82437 70.8972 9.79035C70.8254 9.77694 70.7549 9.75701 70.6866 9.73079C70.6413 9.71018 70.6164 9.69872 70.6187 9.69414C70.6209 9.68956 70.7206 9.72392 70.904 9.74225C71.1646 9.75871 71.4254 9.71565 71.6673 9.61625C72.0254 9.4583 72.3687 9.26816 72.6932 9.04811C72.8937 8.92222 73.1061 8.81707 73.3274 8.73426C73.5706 8.64455 73.8306 8.61089 74.0883 8.63575C74.4096 8.67123 74.7152 8.79414 74.9729 8.99141C75.2305 9.18867 75.4305 9.45291 75.5514 9.75599H75.4631C75.6188 9.54071 75.8412 9.38427 76.095 9.31156C76.2878 9.25502 76.4909 9.24482 76.6883 9.28178C76.8133 9.30578 76.933 9.35234 77.0416 9.41923C77.0804 9.43842 77.1162 9.4631 77.1481 9.49254Z" fill="#455A64"/>
<path d="M74.1653 17.4053C74.1124 17.3605 74.0507 17.3276 73.9844 17.3087C73.918 17.2897 73.8485 17.2852 73.7803 17.2953C73.7005 17.3125 73.6252 17.3465 73.5593 17.3951C73.4933 17.4436 73.4382 17.5056 73.3975 17.5771C73.3975 17.5771 73.3862 17.5885 73.3839 17.5954C73.3527 17.6477 73.3385 17.7086 73.3432 17.7695C73.353 17.8359 73.3788 17.8988 73.4183 17.9527C73.4578 18.0066 73.5097 18.0499 73.5696 18.0788C73.6654 18.1279 73.7737 18.1459 73.8799 18.1303C73.9862 18.1147 74.085 18.0663 74.163 17.9917C74.237 17.9126 74.2785 17.8079 74.2789 17.699C74.2793 17.59 74.2387 17.485 74.1653 17.4053Z" fill="#03989E"/>
<path d="M74.2786 18.1177C74.2605 18.1177 74.2401 18.049 74.179 17.955C74.1053 17.8291 73.9952 17.7291 73.8636 17.6685C73.732 17.6078 73.5851 17.5895 73.4429 17.616C73.3319 17.632 73.264 17.6641 73.2572 17.6481C73.2504 17.632 73.3025 17.5771 73.4248 17.5335C73.5849 17.4814 73.7583 17.4912 73.9117 17.561C74.0664 17.6307 74.1889 17.7578 74.2537 17.9161C74.3012 18.0352 74.2945 18.1154 74.2786 18.1177Z" fill="#263238"/>
<path d="M69.6561 18.4018C69.6561 18.4018 69.7217 18.5163 69.6357 18.6905C69.587 18.7946 69.5013 18.8764 69.3956 18.9195C69.3297 18.9434 69.2591 18.9515 69.1896 18.9432C69.12 18.9348 69.0533 18.9103 68.9947 18.8714C68.9351 18.8348 68.8847 18.7847 68.8474 18.7251C68.8101 18.6655 68.7869 18.598 68.7796 18.5278C68.7727 18.4146 68.8056 18.3027 68.8724 18.2117C68.9902 18.0605 69.1216 18.0559 69.1216 18.0696C69.1216 18.0834 69.0219 18.1223 68.9426 18.2598C68.8967 18.3368 68.8776 18.4271 68.8883 18.5163C68.8967 18.5686 68.9163 18.6184 68.9456 18.6623C68.975 18.7062 69.0133 18.7432 69.0581 18.7706C69.1024 18.7992 69.152 18.8181 69.2039 18.826C69.2558 18.8339 69.3088 18.8306 69.3594 18.8164C69.443 18.7862 69.5151 18.7301 69.5655 18.6561C69.6538 18.5141 69.6379 18.4018 69.6561 18.4018Z" fill="#03989E"/>
<path d="M68.893 18.3125C68.9043 18.3125 68.893 18.3904 68.7865 18.4408C68.7342 18.4628 68.6768 18.4692 68.621 18.4592C68.5652 18.4492 68.5135 18.4233 68.4718 18.3845C68.4301 18.3457 68.4003 18.2957 68.3858 18.2403C68.3714 18.1849 68.3729 18.1265 68.3902 18.072C68.4124 18.01 68.4547 17.9575 68.5102 17.9231C68.6031 17.8658 68.6733 17.8887 68.671 17.9024C68.6687 17.9162 68.6166 17.9322 68.56 17.9895C68.5322 18.0247 68.5152 18.0674 68.5112 18.1124C68.5073 18.1573 68.5165 18.2024 68.5378 18.242C68.5591 18.2816 68.5915 18.314 68.6309 18.3351C68.6703 18.3562 68.715 18.3651 68.7593 18.3606C68.8363 18.3446 68.8771 18.3033 68.893 18.3125Z" fill="#03989E"/>
<path d="M71.3818 38.6576C71.3818 38.6576 76.9895 38.9875 80.3051 39.0173C82.8712 39.0425 84.0171 38.3529 84.529 36.6829C84.9593 35.2831 84.0353 32.5959 84.0353 32.5959C82.2982 32.5959 81.2269 32.8479 80.1104 33.3771L80.4071 34.605L71.366 35.3931L71.3818 38.6576Z" fill="#FFBE9D"/>
<path d="M82.2914 35.9155C82.0482 35.5957 81.7641 35.3099 81.4466 35.0656C81.106 34.8548 80.7388 34.6914 80.355 34.5799C80.4759 34.5623 80.5991 34.5733 80.7151 34.612C81 34.6801 81.2702 34.8004 81.5123 34.9671C81.7548 35.1342 81.9645 35.3455 82.1306 35.5902C82.2574 35.7781 82.305 35.9086 82.2914 35.9155Z" fill="#EB996E"/>
<path d="M69.33 33.3681C69.33 33.3681 67.5952 33.7896 66.3201 34.651L67.6789 38.376C68.1319 39.5993 69.5157 40.2087 70.6232 39.5672C72.3286 38.5799 72.931 35.7025 72.931 35.7025L74.804 27.4829L71.699 25.515L69.3413 33.3681" fill="#FFBE9D"/>
<path d="M71.6875 25.5148L71.8143 22.8116L71.119 20.0626C71.0805 19.9114 71.0624 19.7212 71.1847 19.6296C71.2454 19.5826 71.3203 19.5582 71.3966 19.5607C71.473 19.5632 71.5462 19.5924 71.6037 19.6433C71.7917 19.8404 72.6976 22.2435 72.6976 22.2435C72.6976 22.2435 74.0723 21.4096 74.3169 21.3684C74.5615 21.3271 74.8673 22.0762 74.8877 22.1335C74.8967 22.3014 74.8967 22.4696 74.8877 22.6375C74.8877 22.6375 75.737 22.6627 75.814 22.7795C75.8757 23.0182 75.9084 23.2636 75.9114 23.5103C75.9114 23.5103 76.2715 23.6272 76.3281 23.9021C76.3847 24.177 76.5025 24.6306 76.3281 24.7314C76.1537 24.8322 75.8004 25.0292 75.8004 25.0292C75.8004 25.0292 75.6577 26.4312 75.6192 26.5595C75.5807 26.6878 74.7858 27.4758 74.7858 27.4758L71.6875 25.5148Z" fill="#FFBE9D"/>
<path d="M68.7977 39.622C68.7977 39.622 68.8815 39.6724 69.0582 39.7297C69.3165 39.8117 69.5898 39.8336 69.8577 39.7939C70.288 39.7318 70.691 39.5439 71.0172 39.2532C71.4483 38.8576 71.8125 38.3933 72.0953 37.8787C72.2618 37.5762 72.402 37.2596 72.5143 36.9326C72.6321 36.5727 72.7296 36.2063 72.8064 35.8352C72.9831 35.0632 73.1756 34.2316 73.3794 33.3473C73.7871 31.5811 74.2446 29.6063 74.7383 27.4781V27.4621H74.7496C74.9059 27.3063 75.0622 27.1482 75.2184 26.9833C75.2954 26.9008 75.3724 26.8183 75.4449 26.7336C75.4812 26.6901 75.5197 26.6465 75.5491 26.603C75.572 26.5599 75.5852 26.5122 75.5876 26.4633C75.6488 26.0051 75.6963 25.5309 75.7461 25.0521V25.0223L75.7733 25.0086L76.2059 24.7634C76.2376 24.7428 76.2874 24.7199 76.3078 24.7016C76.3295 24.6818 76.3438 24.6551 76.3486 24.626C76.3591 24.55 76.3591 24.4729 76.3486 24.3969C76.3266 24.2289 76.2926 24.0627 76.2467 23.8998C76.1696 23.7573 76.0403 23.6511 75.8866 23.6043L75.8481 23.5905V23.5516C75.8481 23.4187 75.8345 23.2812 75.8186 23.1461C75.8125 23.0784 75.8026 23.0111 75.7892 22.9445C75.7839 22.9151 75.7747 22.8866 75.762 22.8597C75.762 22.8437 75.762 22.8597 75.7484 22.846C75.7361 22.8394 75.7232 22.8341 75.7099 22.8299C75.4375 22.7699 75.1597 22.7384 74.881 22.736H74.8221V22.6765C74.8221 22.5344 74.8221 22.3763 74.8221 22.2183C74.8127 22.1644 74.7944 22.1125 74.7677 22.0648C74.7451 22.0098 74.7179 21.9571 74.6907 21.9021C74.6377 21.796 74.5756 21.6948 74.505 21.5997C74.473 21.5554 74.434 21.5167 74.3895 21.4852C74.3731 21.4712 74.3529 21.4624 74.3316 21.4599C74.3102 21.4575 74.2886 21.4615 74.2695 21.4715C74.1599 21.5139 74.0532 21.5637 73.9502 21.6204C73.5289 21.8494 73.1167 22.0785 72.7136 22.3259L72.6547 22.3626L72.6298 22.2985C72.4169 21.7555 72.204 21.2195 71.9956 20.6948C71.8914 20.4314 71.7895 20.1679 71.6854 19.9091C71.6693 19.8511 71.6374 19.7988 71.5933 19.7583C71.5493 19.7178 71.4948 19.6907 71.4362 19.68C71.3821 19.6618 71.3235 19.6628 71.27 19.6828C71.2165 19.7028 71.1713 19.7406 71.1418 19.79C71.1136 19.8391 71.1017 19.8961 71.1078 19.9526C71.1078 20.003 71.1395 20.0809 71.1531 20.1427C71.1894 20.2756 71.2233 20.4062 71.2573 20.5368C71.3252 20.8002 71.3909 21.0591 71.4589 21.3157C71.5917 21.8319 71.7223 22.3359 71.8507 22.8276V22.8437C71.8054 23.7845 71.7624 24.6855 71.7216 25.5469V25.5423L69.6584 32.3325L69.0763 34.2225C69.0084 34.4355 68.9563 34.6027 68.92 34.7196C68.8838 34.8364 68.8611 34.8868 68.8611 34.8868C68.8611 34.8868 68.8725 34.8272 68.9042 34.715L69.0469 34.2133C69.1782 33.7712 69.3662 33.132 69.604 32.3164C70.0932 30.6762 70.7885 28.3349 71.6287 25.5126V25.524C71.668 24.6657 71.708 23.7646 71.7488 22.8208V22.8368C71.6197 22.3443 71.486 21.8403 71.3524 21.3271L71.1486 20.5482C71.1146 20.4176 71.0807 20.2848 71.0444 20.1542C71.0249 20.0856 71.009 20.016 70.9968 19.9457C70.9885 19.8662 71.0051 19.786 71.0444 19.7166C71.0863 19.6452 71.151 19.5903 71.2279 19.5609C71.3039 19.5384 71.3843 19.5358 71.4616 19.5534C71.5388 19.5711 71.6104 19.6083 71.6695 19.6617C71.7263 19.7156 71.7685 19.7835 71.7918 19.8587L72.1021 20.6444C72.3127 21.1713 72.5233 21.7074 72.7385 22.2481L72.6547 22.2183C73.0601 21.9754 73.4677 21.7326 73.8981 21.5058C74.0068 21.4483 74.1188 21.3971 74.2333 21.3523C74.269 21.3373 74.308 21.3318 74.3465 21.3363C74.3852 21.342 74.4223 21.356 74.4552 21.3775C74.5098 21.4171 74.5579 21.465 74.5979 21.5196C74.6736 21.6198 74.7396 21.7272 74.7949 21.8403C74.8244 21.8976 74.8515 21.9525 74.8765 22.0098C74.9087 22.0705 74.9302 22.1364 74.9399 22.2045C74.9399 22.3672 74.9399 22.5184 74.9399 22.6627L74.8832 22.6009C75.1744 22.6028 75.4645 22.6366 75.7484 22.7017C75.7679 22.7085 75.7868 22.717 75.805 22.7269C75.8299 22.7406 75.8504 22.7612 75.8639 22.7864C75.8815 22.8236 75.8944 22.8628 75.9024 22.9032C75.916 22.9766 75.9251 23.0453 75.9341 23.1163C75.9477 23.256 75.9568 23.3935 75.9636 23.5309L75.9228 23.476C76.0154 23.5034 76.1015 23.5497 76.1759 23.6119C76.2503 23.6742 76.3113 23.7511 76.3554 23.8379C76.405 24.012 76.4413 24.1897 76.4641 24.3694C76.4798 24.4611 76.4798 24.5549 76.4641 24.6466C76.4542 24.7022 76.4254 24.7524 76.3825 24.7886C76.3454 24.8138 76.3068 24.8367 76.267 24.8574L75.8367 25.0842L75.8662 25.0406C75.8141 25.5194 75.7665 25.9891 75.7031 26.4541L75.6895 26.5434C75.6843 26.5796 75.6694 26.6137 75.6465 26.642C75.6131 26.6921 75.576 26.7396 75.5355 26.784C75.4585 26.871 75.3815 26.9558 75.309 27.0383C75.1528 27.2032 74.9965 27.3613 74.838 27.5171L74.8538 27.4896C74.3555 29.6155 73.8935 31.5902 73.4791 33.3565C73.273 34.2385 73.0759 35.0701 72.8948 35.8398C72.8173 36.2136 72.7174 36.5824 72.5958 36.944C72.4793 37.2742 72.3353 37.5937 72.1655 37.8993C71.8762 38.4205 71.5035 38.8896 71.0625 39.2876C70.7266 39.5801 70.3132 39.7665 69.8735 39.8236C69.5998 39.8608 69.3214 39.8326 69.0604 39.7412C68.9941 39.7165 68.9297 39.6866 68.8679 39.6518L68.7977 39.622Z" fill="#EB996E"/>
<path d="M74.8901 22.6445C74.8901 22.6605 74.813 22.6697 74.693 22.6742C74.5406 22.6772 74.3888 22.6956 74.2401 22.7292C74.0965 22.7649 73.964 22.8366 73.855 22.9377C73.7735 23.0156 73.7373 23.082 73.7192 23.0751C73.701 23.0683 73.7191 22.9858 73.7939 22.8804C73.8994 22.747 74.0461 22.6534 74.2106 22.6147C74.3691 22.5752 74.5338 22.5674 74.6953 22.5918C74.8176 22.6078 74.8901 22.6284 74.8901 22.6445Z" fill="#EB996E"/>
<path d="M74.2333 22.6697C74.2038 22.6582 74.2016 22.5872 74.2333 22.5116C74.265 22.436 74.3103 22.3833 74.3397 22.3948C74.3692 22.4062 74.3737 22.4772 74.3397 22.5528C74.3057 22.6284 74.2559 22.6811 74.2333 22.6697Z" fill="#EB996E"/>
<path d="M75.9501 23.5013C75.7302 23.5701 75.5007 23.6018 75.2706 23.5952C75.1982 23.5927 75.1263 23.6079 75.0609 23.6394C74.9955 23.6709 74.9385 23.7178 74.8947 23.7762C74.8358 23.8701 74.8562 23.948 74.8381 23.9526C74.8199 23.9571 74.7656 23.877 74.8222 23.7395C74.8534 23.6621 74.9103 23.5981 74.983 23.5585C75.0669 23.512 75.1595 23.4839 75.2548 23.4761C75.4861 23.4402 75.7219 23.4488 75.9501 23.5013Z" fill="#EB996E"/>
<path d="M75.8005 24.326C75.8322 24.326 75.8503 24.4955 75.8412 24.7039C75.8322 24.9124 75.7982 25.0774 75.7665 25.0774C75.7348 25.0774 75.7144 24.9055 75.7235 24.6971C75.7325 24.4886 75.7665 24.3237 75.8005 24.326Z" fill="#EB996E"/>
<path d="M76.7404 30.4953L76.9419 29.7943C76.9511 29.7622 76.9685 29.7331 76.9922 29.7098C77.0159 29.6866 77.0452 29.67 77.0772 29.6616C77.1092 29.6533 77.1428 29.6536 77.1747 29.6624C77.2065 29.6712 77.2356 29.6882 77.259 29.7118L77.524 29.9844L77.687 29.3224C77.6966 29.2841 77.7176 29.2498 77.7472 29.224C77.7767 29.1982 77.8133 29.1822 77.8522 29.1782C77.891 29.1742 77.9301 29.1824 77.9641 29.2016C77.9982 29.2208 78.0256 29.2502 78.0426 29.2857L78.4118 30.0692L76.7404 30.4953Z" fill="white"/>
<path d="M78.4164 30.3693C78.163 30.4931 77.894 30.581 77.6169 30.6304C77.3489 30.719 77.0698 30.7683 76.788 30.777C77.3094 30.5652 77.8575 30.4279 78.4164 30.3693Z" fill="white"/>
<path d="M64.9475 26.4587C64.9475 26.4587 64.8637 26.5458 64.7459 26.7314C64.5878 26.9956 64.4839 27.2893 64.4402 27.595C64.3756 28.0502 64.362 28.5113 64.3994 28.9695C64.4243 29.4896 64.4651 30.0577 64.5285 30.6533C64.6358 31.6705 64.7953 32.6814 65.0064 33.6819C65.0857 34.0667 65.1581 34.3691 65.208 34.5982C65.2306 34.6944 65.251 34.7746 65.2668 34.8433C65.2827 34.9121 65.285 34.9304 65.285 34.9304C65.285 34.9304 65.2736 34.9029 65.2578 34.8479C65.2419 34.7929 65.217 34.6967 65.1921 34.6028C65.1355 34.3897 65.0585 34.0828 64.9656 33.6979C64.7455 32.6978 64.5814 31.6859 64.4742 30.6671C64.4108 30.0714 64.3722 29.501 64.3496 28.981C64.3153 28.5224 64.332 28.0613 64.3994 27.6065C64.4481 27.2968 64.5591 27.0005 64.7256 26.7359C64.7869 26.6339 64.8615 26.5406 64.9475 26.4587Z" fill="white"/>
<path d="M69.7149 23.3386L69.6628 23.3661L69.5133 23.4394C69.3843 23.5012 69.1963 23.5928 68.9721 23.7188C68.3876 24.0486 67.8199 24.4079 67.2712 24.7956C66.6235 25.2537 66.0505 25.6707 65.6315 25.9731L65.1355 26.3282L64.9973 26.4221C64.9819 26.4345 64.9652 26.4453 64.9475 26.4541C64.9604 26.4388 64.9757 26.4256 64.9928 26.4152L65.1242 26.3144L65.6111 25.9456C66.0256 25.6363 66.5963 25.2056 67.244 24.7566C67.7937 24.3673 68.3654 24.0109 68.9562 23.6891C69.1827 23.5677 69.3729 23.4806 69.5066 23.4233L69.6583 23.3592C69.7036 23.3431 69.7036 23.3363 69.7149 23.3386Z" fill="white"/>
<path d="M80.5158 24.8299C80.5016 24.8219 80.4886 24.8119 80.4773 24.8001L80.3754 24.7108C80.2492 24.603 80.1168 24.5028 79.979 24.4107C79.5193 24.1141 79.0314 23.8647 78.5228 23.6661C78.0156 23.4629 77.4977 23.2886 76.9714 23.1438C76.7675 23.0865 76.6045 23.0453 76.489 23.0178L76.3599 22.9834C76.3441 22.9802 76.3289 22.9748 76.3146 22.9674H76.3621L76.4935 22.9926C76.609 23.0155 76.7743 23.0522 76.9782 23.1049C77.5095 23.2405 78.0315 23.4112 78.5409 23.6157C79.0525 23.8143 79.5409 24.0693 79.9971 24.3763C80.187 24.5063 80.3611 24.6586 80.5158 24.8299Z" fill="white"/>
<path d="M69.7783 42.3162C69.7476 42.3107 69.7178 42.3007 69.69 42.2864C69.6113 42.2515 69.5355 42.2101 69.4635 42.1627C69.3415 42.0888 69.2351 41.9912 69.1504 41.8757C69.0657 41.7601 69.0043 41.6288 68.9698 41.4892C68.9076 41.2075 68.9386 40.9129 69.0581 40.6508C69.0926 40.5693 69.1367 40.4924 69.1894 40.4217C69.2257 40.3736 69.2506 40.3506 69.2529 40.3529C69.1911 40.4507 69.1358 40.5524 69.0875 40.6576C68.9823 40.915 68.9577 41.1989 69.0173 41.4709C69.0822 41.7394 69.2437 41.9738 69.4703 42.1284C69.6583 42.2658 69.7828 42.3071 69.7783 42.3162Z" fill="white"/>
<path d="M69.0582 39.8352C69.1064 39.9261 69.1422 40.0232 69.1647 40.1239C69.2001 40.2202 69.2215 40.3213 69.2281 40.424C69.1766 40.3352 69.1399 40.2384 69.1194 40.1376C69.0822 40.041 69.0616 39.9388 69.0582 39.8352Z" fill="white"/>
<path d="M72.1201 91.1989L79.0277 91.1645L78.9031 67.0073L78.8375 42.4331L69.477 42.3116L67.7943 45.5189C67.1058 46.8083 66.6669 48.2187 66.5011 49.6745C66.3878 50.7879 67.2122 54.4075 67.4976 55.3238L70.0727 63.5847L72.1201 91.1989Z" fill="#263238"/>
<path d="M80.8646 42.4628L88.4562 63.3945C88.906 64.7432 89.0554 66.1757 88.8937 67.5896C88.7319 69.0035 88.2632 70.3637 87.5208 71.5729L78.7062 88.9835L73.7509 82.7111L81.125 67.1332L74.6251 56.4692L75.719 42.4949L78.781 42.4445L80.8646 42.4628Z" fill="#263238"/>
<path d="M78.208 49.4752C78.208 49.4752 78.208 49.5119 78.208 49.5829C78.208 49.6539 78.2193 49.7639 78.2284 49.899C78.2443 50.1808 78.2646 50.5863 78.2918 51.1109C78.3439 52.1716 78.4164 53.695 78.5183 55.5758C78.6202 57.4566 78.7063 59.6994 78.8195 62.1964C78.8739 63.4427 78.9327 64.7508 78.9916 66.107C79.0347 66.7942 79.0165 67.4815 79.0233 68.1687C79.0301 68.856 79.0233 69.5799 79.0233 70.2993C79.0233 76.0562 79.0415 81.268 79.0483 85.0456C79.0483 86.9287 79.0483 88.4544 79.0483 89.5151C79.0483 90.0397 79.0483 90.4475 79.0483 90.7316C79.0483 90.8644 79.0483 90.9606 79.0483 91.0477C79.0483 91.1347 79.0483 91.1554 79.0483 91.1554C79.0483 91.1554 79.0483 91.1187 79.0483 91.0477V90.7316C79.0483 90.4475 79.0483 90.0443 79.0347 89.5151C79.0347 88.4544 79.0165 86.931 79.003 85.0479C78.9871 81.2702 78.9667 76.0585 78.9441 70.3015C78.9441 69.5822 78.9441 68.872 78.9441 68.171C78.9441 67.47 78.9577 66.7782 78.9146 66.1092C78.858 64.7553 78.8014 63.4473 78.7493 62.201C78.6451 59.7085 78.55 57.4658 78.473 55.5781C78.396 53.6904 78.3394 52.1739 78.2963 51.1132C78.2782 50.5909 78.2646 50.1831 78.2556 49.899C78.2556 49.7639 78.2556 49.6699 78.2556 49.5829C78.2556 49.4958 78.208 49.4752 78.208 49.4752Z" fill="#455A64"/>
<path d="M78.0337 42.8752C78.0602 42.9489 78.0762 43.0261 78.0813 43.1043C78.1062 43.2509 78.1334 43.464 78.1651 43.7297C78.2239 44.2589 78.2874 44.9943 78.3236 45.8076C78.3598 46.6208 78.3621 47.3585 78.3508 47.8923C78.3508 48.158 78.3349 48.3756 78.3236 48.5245C78.3259 48.6018 78.3167 48.6791 78.2964 48.7536C78.2679 48.4675 78.2581 48.1797 78.267 47.8923C78.267 47.3585 78.2421 46.6254 78.2058 45.8121C78.1696 44.9989 78.1198 44.2681 78.0813 43.7504C78.049 43.4598 78.0332 43.1676 78.0337 42.8752Z" fill="#455A64"/>
<path d="M76.5117 43.3471C76.523 43.3631 76.3939 43.4227 76.3576 43.6082C76.3475 43.6586 76.3503 43.7107 76.3657 43.7596C76.3812 43.8086 76.4088 43.8527 76.446 43.8877C76.4908 43.9299 76.5466 43.9581 76.6069 43.9691C76.6671 43.98 76.7292 43.9733 76.7857 43.9496C76.84 43.9213 76.8853 43.8782 76.9165 43.8251C76.9477 43.772 76.9636 43.7112 76.9623 43.6495C76.9603 43.5982 76.9452 43.5483 76.9187 43.5046C76.8921 43.4609 76.8549 43.4248 76.8106 43.3998C76.7185 43.3546 76.6157 43.3364 76.5139 43.3471C76.5139 43.3471 76.5366 43.3173 76.5954 43.299C76.6804 43.278 76.7698 43.2869 76.8491 43.3242C76.9123 43.3508 76.967 43.3946 77.007 43.4509C77.047 43.5071 77.0708 43.5735 77.0756 43.6426C77.0846 43.7279 77.0669 43.8139 77.025 43.8885C76.9831 43.9631 76.9192 44.0225 76.8422 44.0584C76.7652 44.0943 76.679 44.1049 76.5957 44.0887C76.5125 44.0724 76.4363 44.0302 76.378 43.9679C76.3299 43.9195 76.2958 43.8587 76.2794 43.792C76.263 43.7254 76.265 43.6555 76.2852 43.5899C76.3079 43.5042 76.3591 43.429 76.4301 43.3768C76.4754 43.3448 76.5094 43.3402 76.5117 43.3471Z" fill="#455A64"/>
<path d="M72.888 42.9324C72.9214 43.0046 72.9421 43.0821 72.9492 43.1615C72.9856 43.3671 72.9925 43.577 72.9695 43.7846C72.937 44.0937 72.8487 44.3942 72.7091 44.6711C72.5404 45.0156 72.2907 45.313 71.9819 45.5371C71.6731 45.7611 71.3147 45.9051 70.938 45.9563C70.6366 46.0019 70.3293 45.9902 70.0321 45.922C69.831 45.8778 69.6372 45.8045 69.4568 45.7043C69.3887 45.6717 69.326 45.6284 69.2711 45.576C69.5215 45.69 69.7825 45.7782 70.0502 45.8395C70.3723 45.9072 70.7048 45.9067 71.0267 45.8379C71.3486 45.7691 71.653 45.6336 71.9205 45.4398C72.188 45.2461 72.4129 44.9984 72.581 44.7123C72.7491 44.4262 72.8567 44.108 72.8971 43.7777C72.9237 43.4964 72.9206 43.213 72.888 42.9324Z" fill="#455A64"/>
<path d="M81.7749 44.9392C81.6272 44.9564 81.4775 44.9384 81.3378 44.8865C80.9957 44.7775 80.6884 44.5782 80.4478 44.3092C80.2049 44.0414 80.0382 43.7121 79.9654 43.3562C79.9297 43.211 79.9297 43.0592 79.9654 42.9141C79.9857 42.9141 79.988 43.0813 80.0559 43.3379C80.1477 43.6694 80.3147 43.9747 80.5435 44.2297C80.7723 44.4846 81.0567 44.682 81.3741 44.8063C81.6096 44.9002 81.7772 44.9163 81.7749 44.9392Z" fill="#455A64"/>
<path d="M84.4724 67.5043C84.3589 67.6353 84.2231 67.7447 84.0715 67.8273C83.9125 67.9294 83.7392 68.0066 83.5574 68.0564C83.3287 68.1177 83.0874 68.1114 82.8621 68.0381C82.4665 67.8872 82.1276 67.6148 81.8928 67.2592C81.785 67.1255 81.6958 66.9775 81.6278 66.8193C81.7501 66.9374 81.8608 67.067 81.9585 67.2065C82.199 67.5291 82.5237 67.7774 82.8961 67.9235C83.0862 67.9749 83.2846 67.9865 83.4793 67.9578C83.674 67.929 83.8608 67.8605 84.0285 67.7563C84.1716 67.6638 84.3198 67.5797 84.4724 67.5043Z" fill="#455A64"/>
<path d="M82.7421 68.8399C82.4744 68.5595 82.2354 68.2525 82.0286 67.9236C81.7905 67.6173 81.5827 67.2881 81.4081 66.9408C81.6776 67.2202 81.9174 67.5273 82.1238 67.8571C82.3638 68.1616 82.5711 68.491 82.7421 68.8399Z" fill="#455A64"/>
<path d="M71.1372 50.2839C71.1055 50.2953 71.0263 50.1647 70.9561 49.9883C70.8859 49.8119 70.8564 49.663 70.8859 49.6493C70.9153 49.6355 70.9968 49.7684 71.0648 49.9448C71.1327 50.1212 71.1667 50.2839 71.1372 50.2839Z" fill="#FAFAFA"/>
<path d="M75.5219 50.9207C75.4879 50.9207 75.463 50.8085 75.463 50.6687C75.463 50.529 75.4879 50.4144 75.5219 50.4144C75.5559 50.4144 75.5808 50.529 75.5808 50.6687C75.5808 50.8085 75.5536 50.9207 75.5219 50.9207Z" fill="#FAFAFA"/>
<path d="M73.7192 53.3308C73.6875 53.3308 73.6513 53.1933 73.64 53.0169C73.6286 52.8405 73.64 52.6985 73.6762 52.6962C73.7124 52.6939 73.7464 52.8336 73.7577 53.01C73.769 53.1864 73.7509 53.3285 73.7192 53.3308Z" fill="#FAFAFA"/>
<path d="M70.4261 55.0947C70.3989 55.1153 70.3061 55.0305 70.1838 54.9435C70.0615 54.8564 69.9573 54.79 69.9573 54.7579C69.9573 54.7259 70.1068 54.7442 70.2449 54.845C70.3831 54.9458 70.4533 55.0947 70.4261 55.0947Z" fill="#FAFAFA"/>
<path d="M76.2308 57.342C76.2037 57.3237 76.2308 57.2252 76.3078 57.113C76.3849 57.0007 76.4551 56.9366 76.4822 56.9549C76.5094 56.9732 76.4822 57.074 76.4052 57.184C76.3282 57.2939 76.258 57.3604 76.2308 57.342Z" fill="#FAFAFA"/>
<path d="M72.6479 57.9766C72.6162 57.9766 72.589 57.7864 72.589 57.555C72.589 57.3237 72.6162 57.1312 72.6479 57.1312C72.6796 57.1312 72.7068 57.3214 72.7068 57.555C72.7068 57.7887 72.6728 57.9766 72.6479 57.9766Z" fill="#FAFAFA"/>
<path d="M71.4748 60.5469C71.4567 60.5721 71.339 60.5194 71.2121 60.4255C71.0853 60.3316 70.9856 60.2354 71.0151 60.2079C71.0445 60.1804 71.1532 60.2354 71.2801 60.3293C71.4069 60.4232 71.4952 60.5194 71.4748 60.5469Z" fill="#FAFAFA"/>
<path d="M75.1029 61.4404C75.1165 61.4702 75.044 61.5321 74.9398 61.5802C74.8356 61.6283 74.7405 61.6397 74.7269 61.61C74.7133 61.5802 74.7881 61.5183 74.8923 61.4702C74.9965 61.4221 75.0916 61.4106 75.1029 61.4404Z" fill="#FAFAFA"/>
<path d="M72.6478 65.6327C72.6206 65.6464 72.5029 65.47 72.3873 65.2363C72.2718 65.0027 72.2016 64.8011 72.2311 64.7782C72.2605 64.7553 72.3783 64.9408 72.4915 65.1745C72.6048 65.4082 72.6682 65.6075 72.6478 65.6327Z" fill="#FAFAFA"/>
<path d="M76.6498 65.2432C76.6204 65.2272 76.6725 65.0737 76.7631 64.8973C76.8537 64.7209 76.9556 64.5926 76.9896 64.6087C77.0235 64.6247 76.9669 64.7782 76.8741 64.9546C76.7812 65.131 76.677 65.2593 76.6498 65.2432Z" fill="#FAFAFA"/>
<path d="M74.8946 68.7918C74.8606 68.7918 74.8652 68.6062 74.8289 68.3909C74.7927 68.1755 74.7383 68.0037 74.7701 67.9877C74.8018 67.9716 74.9105 68.1343 74.9467 68.3725C74.9829 68.6108 74.9263 68.7986 74.8946 68.7918Z" fill="#FAFAFA"/>
<path d="M73.0149 70.8192C72.9923 70.8421 72.879 70.755 72.7635 70.6267C72.648 70.4985 72.5733 70.377 72.5982 70.3541C72.6231 70.3312 72.7341 70.4183 72.8496 70.5466C72.9651 70.6749 73.0398 70.7963 73.0149 70.8192Z" fill="#FAFAFA"/>
<path d="M77.5761 71.589C77.5534 71.5661 77.6372 71.4423 77.7641 71.3118C77.8909 71.1812 78.0087 71.0964 78.0336 71.1193C78.0585 71.1422 77.9724 71.2682 77.8479 71.3965C77.7233 71.5248 77.601 71.6119 77.5761 71.589Z" fill="#FAFAFA"/>
<path d="M74.9535 74.6243C74.9218 74.6243 74.9218 74.4433 74.9535 74.2325C74.9852 74.0218 75.035 73.8568 75.069 73.8614C75.1029 73.866 75.1007 74.0401 75.069 74.2509C75.0373 74.4616 74.9852 74.6289 74.9535 74.6243Z" fill="#FAFAFA"/>
<path d="M73.1892 76.0974C73.1598 76.1135 73.0601 75.9943 72.9627 75.8317C72.8653 75.669 72.8155 75.5247 72.8427 75.5087C72.8699 75.4926 72.9695 75.6095 73.0692 75.7721C73.1688 75.9348 73.2164 76.0791 73.1892 76.0974Z" fill="#FAFAFA"/>
<path d="M77.4401 77.9553C77.4605 77.9828 77.345 78.0996 77.1819 78.2164C77.0189 78.3333 76.8762 78.4066 76.8558 78.3791C76.8354 78.3516 76.9532 78.2347 77.114 78.1179C77.2748 78.0011 77.422 77.9301 77.4401 77.9553Z" fill="#FAFAFA"/>
<path d="M73.8981 80.3676C73.8664 80.3562 73.8981 80.1729 73.9275 79.9438C73.957 79.7147 73.9388 79.5269 73.9728 79.5223C74.0068 79.5177 74.0657 79.7101 74.043 79.9553C74.0204 80.2004 73.9275 80.3814 73.8981 80.3676Z" fill="#FAFAFA"/>
<path d="M75.3136 83.8314C75.2864 83.852 75.1913 83.7741 75.0984 83.6573C75.0056 83.5405 74.9535 83.4282 74.9784 83.4076C75.0033 83.387 75.0984 83.4649 75.1913 83.5817C75.2841 83.6985 75.3385 83.8108 75.3136 83.8314Z" fill="#FAFAFA"/>
<path d="M73.7667 86.1543C73.7395 86.1726 73.6149 86.0374 73.4881 85.8496C73.3613 85.6617 73.282 85.4968 73.3069 85.4785C73.3319 85.4601 73.4587 85.5953 73.5855 85.7832C73.7123 85.971 73.7939 86.1359 73.7667 86.1543Z" fill="#FAFAFA"/>
<path d="M78.0267 83.238C77.9973 83.2266 77.9996 83.1418 78.0267 83.0502C78.0539 82.9585 78.1151 82.8898 78.1468 82.9013C78.1785 82.9127 78.1739 82.9975 78.1468 83.0914C78.1196 83.1853 78.0584 83.2518 78.0267 83.238Z" fill="#FAFAFA"/>
<path d="M76.147 88.7705C76.1176 88.7544 76.1742 88.5918 76.2195 88.3879C76.2648 88.184 76.2807 88.0122 76.3146 88.0099C76.3486 88.0076 76.3826 88.1932 76.335 88.4131C76.2875 88.633 76.1742 88.7888 76.147 88.7705Z" fill="#FAFAFA"/>
<path d="M77.3699 53.3673C77.3404 53.3811 77.268 53.2894 77.2091 53.1611C77.1502 53.0329 77.1253 52.9183 77.1547 52.9046C77.1842 52.8908 77.2566 52.9825 77.3155 53.1107C77.3744 53.239 77.4039 53.3536 77.3699 53.3673Z" fill="#FAFAFA"/>
<path d="M74.2333 46.2336C74.2514 46.261 74.0928 46.3893 73.923 46.5726C73.7531 46.7559 73.6376 46.9254 73.6082 46.9094C73.5787 46.8933 73.6557 46.6803 73.8347 46.4924C74.0136 46.3046 74.2106 46.2038 74.2333 46.2336Z" fill="#FAFAFA"/>
<path d="M77.0258 46.1603C76.9918 46.1603 76.9397 46.0297 76.8605 45.8739C76.7812 45.7181 76.7087 45.5899 76.7336 45.5669C76.7585 45.544 76.8808 45.6448 76.9601 45.8189C77.0394 45.993 77.0552 46.142 77.0258 46.1603Z" fill="#FAFAFA"/>
<path d="M68.3063 48.4764C68.2768 48.4626 68.3063 48.3114 68.3765 48.1373C68.4467 47.9632 68.5237 47.828 68.5554 47.8418C68.5871 47.8555 68.5554 48.0044 68.4852 48.1808C68.415 48.3572 68.3448 48.4878 68.3063 48.4764Z" fill="#FAFAFA"/>
<path d="M68.5894 51.9356C68.5667 51.9608 68.4376 51.8875 68.2995 51.7707C68.1613 51.6538 68.073 51.5416 68.0866 51.5141C68.1002 51.4866 68.2383 51.5622 68.3765 51.679C68.5146 51.7959 68.6097 51.9104 68.5894 51.9356Z" fill="#FAFAFA"/>
<path d="M74.3103 43.4869C74.2808 43.4869 74.2174 43.4135 74.1721 43.2967C74.1268 43.1799 74.1132 43.0676 74.1427 43.0676C74.1721 43.0676 74.2355 43.1409 74.2808 43.2578C74.3261 43.3746 74.3397 43.4754 74.3103 43.4869Z" fill="#FAFAFA"/>
<path d="M79.7887 45.1775C79.757 45.1775 79.7592 45.0332 79.7887 44.8705C79.8181 44.7079 79.877 44.5796 79.9087 44.5864C79.9404 44.5933 79.9382 44.7331 79.9087 44.8957C79.8793 45.0584 79.8204 45.1844 79.7887 45.1775Z" fill="#FAFAFA"/>
<path d="M81.0752 47.7959C81.0458 47.7821 81.0865 47.6126 81.1681 47.4133C81.2496 47.214 81.3379 47.0651 81.3674 47.0765C81.3968 47.088 81.3674 47.2598 81.2768 47.4591C81.1862 47.6584 81.1069 47.8073 81.0752 47.7959Z" fill="#FAFAFA"/>
<path d="M80.1579 49.9081C80.1285 49.9219 80.0198 49.7638 79.9156 49.5553C79.8114 49.3469 79.7525 49.1613 79.782 49.1476C79.8114 49.1338 79.9179 49.2919 80.0221 49.5004C80.1262 49.7088 80.1874 49.8921 80.1579 49.9081Z" fill="#FAFAFA"/>
<path d="M82.1194 52.0203C82.09 52.0089 82.1194 51.876 82.1692 51.7248C82.219 51.5736 82.2983 51.4591 82.33 51.4705C82.3617 51.482 82.33 51.6148 82.2802 51.766C82.2304 51.9172 82.1602 52.0318 82.1194 52.0203Z" fill="#FAFAFA"/>
<path d="M80.3662 54.089C80.3391 54.1073 80.2689 54.0455 80.2122 53.9538C80.1556 53.8622 80.1284 53.7706 80.1579 53.7522C80.1873 53.7339 80.253 53.7958 80.3119 53.8897C80.3708 53.9836 80.3934 54.073 80.3662 54.089Z" fill="#FAFAFA"/>
<path d="M80.7399 58.3592C80.7172 58.3798 80.5745 58.2676 80.4251 58.1026C80.2756 57.9377 80.1737 57.7888 80.1986 57.7659C80.2235 57.7429 80.3639 57.8575 80.5134 58.0224C80.6629 58.1874 80.7648 58.3363 80.7399 58.3592Z" fill="#FAFAFA"/>
<path d="M83.0388 55.9055C83.0139 55.9262 82.8893 55.8116 82.7625 55.6467C82.6357 55.4817 82.5541 55.3351 82.5791 55.3145C82.604 55.2939 82.7285 55.4107 82.8554 55.5734C82.9822 55.736 83.066 55.8872 83.0388 55.9055Z" fill="#FAFAFA"/>
<path d="M84.3003 59.2892C84.2709 59.2755 84.323 59.1036 84.4158 58.9066C84.5087 58.7096 84.6061 58.5584 84.6423 58.5722C84.6786 58.5859 84.6219 58.76 84.5291 58.957C84.4362 59.154 84.3298 59.3052 84.3003 59.2892Z" fill="#FAFAFA"/>
<path d="M81.6187 62.075C81.5893 62.091 81.4851 61.965 81.3402 61.8298C81.1952 61.6947 81.0616 61.6007 81.0752 61.5664C81.0888 61.532 81.2609 61.5939 81.4194 61.7428C81.578 61.8917 81.6459 62.0589 81.6187 62.075Z" fill="#FAFAFA"/>
<path d="M81.7863 64.9454C81.7863 64.9775 81.673 65.005 81.5349 65.005C81.3967 65.005 81.2858 64.9775 81.2858 64.9454C81.2858 64.9134 81.3967 64.8859 81.5349 64.8859C81.673 64.8859 81.7863 64.9134 81.7863 64.9454Z" fill="#FAFAFA"/>
<path d="M84.5426 64.1436C84.5132 64.1276 84.572 63.9832 84.6151 63.8046C84.6581 63.6259 84.6762 63.4701 84.7102 63.4678C84.7442 63.4655 84.7804 63.6327 84.7306 63.8321C84.6808 64.0314 84.5675 64.1619 84.5426 64.1436Z" fill="#FAFAFA"/>
<path d="M87.2807 65.108C87.2513 65.1195 87.1675 64.9569 87.095 64.7484C87.0226 64.5399 86.9886 64.3612 87.018 64.3521C87.0475 64.3429 87.1335 64.501 87.206 64.7094C87.2785 64.9179 87.3125 65.0966 87.2807 65.108Z" fill="#FAFAFA"/>
<path d="M86.8436 69.0484C86.8164 69.0324 86.8866 68.84 86.9999 68.6178C87.1131 68.3955 87.2264 68.2283 87.2603 68.2443C87.2943 68.2604 87.2196 68.4528 87.1041 68.6727C86.9886 68.8927 86.8731 69.0691 86.8436 69.0484Z" fill="#FAFAFA"/>
<path d="M84.3456 71.3598C84.3161 71.3713 84.2233 71.2132 84.1372 71.0048C84.0512 70.7963 84.0081 70.6176 84.0398 70.6038C84.0715 70.5901 84.1621 70.7505 84.2459 70.9589C84.3297 71.1674 84.375 71.3598 84.3456 71.3598Z" fill="#FAFAFA"/>
<path d="M81.578 72.2556C81.578 72.2877 81.4829 72.3152 81.3674 72.3152C81.2519 72.3152 81.1591 72.2877 81.1591 72.2556C81.1591 72.2235 81.2542 72.196 81.3674 72.196C81.4807 72.196 81.578 72.2235 81.578 72.2556Z" fill="#FAFAFA"/>
<path d="M83.1633 75.9416C83.1339 75.9416 83.0705 75.8156 83.0229 75.6415C82.9754 75.4674 82.9663 75.3162 82.998 75.3093C83.0297 75.3025 83.0909 75.4353 83.1384 75.6094C83.186 75.7835 83.195 75.9233 83.1633 75.9416Z" fill="#FAFAFA"/>
<path d="M81.159 74.7046C81.1318 74.6885 81.159 74.5809 81.2337 74.464C81.3085 74.3472 81.3832 74.267 81.4104 74.283C81.4376 74.2991 81.4104 74.409 81.3356 74.5259C81.2609 74.6427 81.1884 74.7229 81.159 74.7046Z" fill="#FAFAFA"/>
<path d="M81.1182 78.7617C81.0865 78.7617 81.0412 78.6082 81.0186 78.4089C80.9959 78.2096 81.0027 78.0469 81.0344 78.0423C81.0661 78.0378 81.1114 78.1958 81.1341 78.3951C81.1567 78.5944 81.1499 78.7571 81.1182 78.7617Z" fill="#FAFAFA"/>
</svg>
