<svg width="315" height="222" viewBox="0 0 315 222" fill="none" xmlns="http://www.w3.org/2000/svg">
<path d="M314.5 195.091H0.5V195.238H314.5V195.091Z" fill="#EBEBEB"/>
<path d="M149.336 168.514H28.0755C27.1255 168.513 26.215 168.154 25.5439 167.516C24.8728 166.878 24.4958 166.013 24.4958 165.112V3.37267C24.5041 2.47649 24.8847 1.61959 25.5549 0.988097C26.2252 0.356608 27.1309 0.00153521 28.0755 0H149.336C150.287 0 151.199 0.358473 151.872 0.99656C152.544 1.63465 152.922 2.50008 152.922 3.40247V165.112C152.922 166.014 152.544 166.88 151.872 167.518C151.199 168.156 150.287 168.514 149.336 168.514ZM28.0755 0.119176C27.1671 0.120755 26.2966 0.464228 25.6549 1.07421C25.0132 1.68418 24.6528 2.51082 24.6528 3.37267V165.112C24.6528 165.974 25.0132 166.801 25.6549 167.41C26.2966 168.02 27.1671 168.364 28.0755 168.366H149.336C150.245 168.364 151.116 168.021 151.759 167.411C152.401 166.801 152.763 165.974 152.765 165.112V3.37267C152.763 2.51028 152.401 1.68365 151.759 1.07384C151.116 0.464035 150.245 0.120751 149.336 0.119176H28.0755Z" fill="#EBEBEB"/>
<path d="M285.179 168.514H163.912C162.962 168.513 162.05 168.154 161.378 167.516C160.706 166.878 160.328 166.014 160.326 165.112V3.37267C160.336 2.47594 160.718 1.61905 161.389 0.987724C162.061 0.3564 162.967 0.00151847 163.912 0H285.179C286.122 0.00310125 287.026 0.358867 287.695 0.990188C288.364 1.62151 288.744 2.47752 288.752 3.37267V165.112C288.752 166.012 288.376 166.876 287.706 167.514C287.037 168.151 286.128 168.511 285.179 168.514ZM163.912 0.119176C163.003 0.120751 162.132 0.464035 161.489 1.07384C160.847 1.68365 160.485 2.51028 160.483 3.37267V165.112C160.485 165.974 160.847 166.801 161.489 167.411C162.132 168.021 163.003 168.364 163.912 168.366H285.179C286.088 168.364 286.959 168.021 287.602 167.411C288.244 166.801 288.606 165.974 288.608 165.112V3.37267C288.606 2.51028 288.244 1.68365 287.602 1.07384C286.959 0.464035 286.088 0.120751 285.179 0.119176H163.912Z" fill="#EBEBEB"/>
<path d="M49.0321 200.764H32.7041V200.91H49.0321V200.764Z" fill="#EBEBEB"/>
<path d="M119.933 199.149H91.6543V199.296H119.933V199.149Z" fill="#EBEBEB"/>
<path d="M87.836 206.299H49.6599V206.446H87.836V206.299Z" fill="#EBEBEB"/>
<path d="M282.295 205.298H270.219V205.445H282.295V205.298Z" fill="#EBEBEB"/>
<path d="M264.624 205.298H229.902V205.445H264.624V205.298Z" fill="#EBEBEB"/>
<path d="M208.695 202.783H161.927V202.93H208.695V202.783Z" fill="#EBEBEB"/>
<path d="M120.341 95.603L112.397 195.115H189.013L196.957 95.603H120.341ZM168.515 165.917C168.144 169.889 166.236 173.59 163.157 176.305C160.079 179.02 156.05 180.556 151.848 180.617C149.858 180.646 147.885 180.277 146.056 179.534C144.226 178.791 142.583 177.69 141.232 176.303C139.882 174.917 138.855 173.276 138.218 171.487C137.581 169.698 137.348 167.802 137.536 165.923L140.33 130.945C140.701 126.973 142.609 123.273 145.686 120.559C148.763 117.844 152.79 116.307 156.991 116.244C158.982 116.214 160.957 116.583 162.788 117.326C164.619 118.069 166.264 119.17 167.615 120.557C168.967 121.945 169.995 123.587 170.633 125.377C171.271 127.166 171.503 129.064 171.316 130.945L168.515 165.917Z" fill="#E6E6E6"/>
<path d="M213.317 195.091H101.608L102.255 188.56H213.957L213.317 195.091Z" fill="#E6E6E6"/>
<path d="M256.235 158.152H266.145C266.277 158.152 266.409 158.127 266.531 158.077C266.653 158.027 266.763 157.954 266.854 157.863C266.945 157.771 267.015 157.663 267.061 157.545C267.106 157.426 267.126 157.301 267.118 157.175L267.08 156.507C267.065 156.247 266.945 156.001 266.745 155.821C266.546 155.64 266.282 155.539 266.007 155.536H256.097C255.964 155.535 255.832 155.56 255.71 155.609C255.588 155.658 255.478 155.73 255.386 155.821C255.294 155.912 255.223 156.02 255.177 156.138C255.13 156.256 255.11 156.382 255.117 156.507L255.155 157.175C255.171 157.437 255.291 157.684 255.492 157.866C255.692 158.047 255.958 158.149 256.235 158.152Z" fill="#E0E0E0"/>
<path d="M239.699 158.152H249.59C249.723 158.153 249.855 158.128 249.977 158.079C250.099 158.029 250.21 157.956 250.301 157.865C250.392 157.773 250.463 157.664 250.508 157.546C250.553 157.427 250.572 157.301 250.563 157.175L250.525 156.507C250.51 156.247 250.39 156.001 250.19 155.821C249.991 155.64 249.727 155.539 249.452 155.536H239.561C239.428 155.535 239.296 155.56 239.174 155.609C239.052 155.658 238.942 155.73 238.85 155.821C238.758 155.912 238.687 156.02 238.641 156.138C238.594 156.256 238.574 156.382 238.581 156.507L238.619 157.175C238.636 157.437 238.757 157.683 238.957 157.864C239.157 158.045 239.422 158.148 239.699 158.152Z" fill="#E0E0E0"/>
<path d="M273.824 157.413H42.9522C41.6546 157.4 40.4105 156.921 39.4711 156.071C38.5316 155.222 37.9667 154.066 37.8905 152.837L30.9385 21.2548C30.8996 20.6641 30.9895 20.0722 31.2027 19.516C31.4158 18.9598 31.7476 18.4514 32.1773 18.0224C32.607 17.5934 33.1254 17.2532 33.6999 17.023C34.2745 16.7928 34.893 16.6775 35.5166 16.6844H266.388C267.685 16.6958 268.929 17.1741 269.869 18.0225C270.809 18.8709 271.374 20.0262 271.45 21.2548L278.402 152.837C278.441 153.428 278.351 154.02 278.138 154.576C277.925 155.133 277.593 155.642 277.163 156.071C276.734 156.501 276.216 156.841 275.641 157.072C275.066 157.303 274.448 157.419 273.824 157.413Z" fill="#E0E0E0"/>
<path d="M276.65 157.413H45.7848C44.4827 157.405 43.2325 156.928 42.287 156.078C41.3415 155.228 40.7713 154.07 40.6917 152.837L33.7837 21.2546C33.7449 20.665 33.8345 20.0741 34.0469 19.5187C34.2593 18.9634 34.5899 18.4555 35.0183 18.0267C35.4466 17.5979 35.9634 17.2574 36.5365 17.0265C37.1096 16.7955 37.7267 16.679 38.3493 16.6843H269.215C270.516 16.691 271.766 17.1669 272.712 18.0155C273.658 18.8641 274.228 20.022 274.308 21.2546L281.216 152.837C281.255 153.427 281.165 154.018 280.953 154.573C280.74 155.129 280.41 155.637 279.981 156.067C279.553 156.496 279.037 156.837 278.463 157.068C277.89 157.3 277.273 157.417 276.65 157.413Z" fill="#E6E6E6"/>
<path d="M47.1346 148.23L40.6913 25.8668C40.6681 25.4967 40.7252 25.126 40.8593 24.7778C40.9933 24.4296 41.2013 24.1112 41.4704 23.8424C41.7396 23.5736 42.064 23.3602 42.4237 23.2154C42.7834 23.0706 43.1706 22.9975 43.5613 23.0006H264.693C265.506 23.0069 266.286 23.3066 266.875 23.8389C267.464 24.3712 267.818 25.0962 267.864 25.8668L274.307 148.23C274.331 148.6 274.275 148.971 274.142 149.319C274.009 149.667 273.801 149.986 273.533 150.255C273.264 150.523 272.94 150.737 272.58 150.882C272.221 151.027 271.834 151.1 271.444 151.097H50.306C49.4931 151.089 48.7136 150.789 48.1249 150.257C47.5362 149.725 47.1823 149.001 47.1346 148.23Z" fill="#F5F5F5"/>
<path d="M54.2945 29.2571C54.3169 29.5829 54.2685 29.9096 54.1523 30.2169C54.0361 30.5242 53.8546 30.8056 53.6191 31.0436C53.3836 31.2816 53.099 31.4711 52.7831 31.6005C52.4672 31.7298 52.1266 31.7962 51.7825 31.7955C51.063 31.7877 50.3734 31.5215 49.8525 31.0505C49.3316 30.5794 49.0182 29.9386 48.9754 29.2571C48.9539 28.9318 49.003 28.6058 49.1196 28.2992C49.2362 27.9926 49.4178 27.7119 49.6532 27.4745C49.8887 27.2372 50.1729 27.0482 50.4884 26.9192C50.8038 26.7902 51.1439 26.724 51.4874 26.7246C52.2067 26.7295 52.8972 26.994 53.4185 27.4643C53.9399 27.9347 54.2531 28.5756 54.2945 29.2571Z" fill="white"/>
<path d="M66.3958 29.2571C66.4182 29.5829 66.3698 29.9096 66.2536 30.2169C66.1374 30.5242 65.9559 30.8056 65.7204 31.0436C65.4849 31.2816 65.2003 31.4711 64.8844 31.6005C64.5685 31.7298 64.2279 31.7962 63.8838 31.7955C63.1644 31.7877 62.4747 31.5215 61.9538 31.0505C61.433 30.5794 61.1195 29.9386 61.0767 29.2571C61.0552 28.9318 61.1043 28.6058 61.2209 28.2992C61.3375 27.9926 61.5191 27.7119 61.7545 27.4745C61.99 27.2372 62.2742 27.0482 62.5897 26.9192C62.9052 26.7902 63.2452 26.724 63.5887 26.7246C64.3081 26.7295 64.9985 26.994 65.5198 27.4643C66.0412 27.9347 66.3544 28.5756 66.3958 29.2571Z" fill="white"/>
<path d="M78.5038 29.2571C78.5262 29.5829 78.4778 29.9096 78.3616 30.2169C78.2454 30.5242 78.0639 30.8056 77.8284 31.0436C77.5929 31.2816 77.3083 31.4711 76.9924 31.6005C76.6765 31.7298 76.3359 31.7962 75.9918 31.7955C75.2725 31.789 74.5828 31.5231 74.0626 31.0516C73.5424 30.5802 73.2308 29.9386 73.1909 29.2571C73.1695 28.9318 73.2186 28.6058 73.3351 28.2992C73.4517 27.9926 73.6334 27.7119 73.8688 27.4745C74.1042 27.2372 74.3885 27.0482 74.7039 26.9192C75.0194 26.7902 75.3594 26.724 75.7029 26.7246C76.4208 26.7324 77.1088 26.9981 77.6285 27.468C78.1482 27.9379 78.461 28.5772 78.5038 29.2571Z" fill="white"/>
<g opacity="0.6">
<path d="M70.1323 151.097H102.003L131.143 23.0005H99.2715L70.1323 151.097Z" fill="white"/>
<path d="M207.288 151.097H215.357L244.497 23.0005H236.427L207.288 151.097Z" fill="white"/>
<path d="M109.087 151.097H154.303L183.442 23.0005H138.226L109.087 151.097Z" fill="white"/>
</g>
<path d="M157.5 222C224.748 222 279.263 218.98 279.263 215.255C279.263 211.529 224.748 208.509 157.5 208.509C90.2519 208.509 35.7368 211.529 35.7368 215.255C35.7368 218.98 90.2519 222 157.5 222Z" fill="#F5F5F5"/>
<path d="M226.957 123.973H226.731C210.001 122.674 198.471 109.076 198.006 108.527C197.578 107.972 197.393 107.28 197.49 106.598C197.587 105.916 197.959 105.296 198.528 104.868C199.097 104.44 199.818 104.238 200.54 104.304C201.262 104.369 201.93 104.698 202.402 105.22C202.534 105.381 212.387 116.906 226.034 118.55C230.43 114.379 234.198 103.367 233.777 100.036C233.777 100 233.777 99.9706 233.777 99.9408C233.689 98.8683 233.476 95.1738 234.587 92.9989C234.953 92.4397 235.525 92.029 236.191 91.8461C236.858 91.6632 237.572 91.7209 238.196 92.0082C238.821 92.2955 239.311 92.792 239.572 93.4018C239.833 94.0117 239.847 94.6918 239.611 95.3109C239.335 95.8591 239.203 97.8314 239.335 99.482C239.963 104.964 234.939 118.8 228.659 123.43C228.169 123.783 227.571 123.974 226.957 123.973Z" fill="#263238"/>
<path d="M93.9589 109.535C88.18 109.468 82.4799 108.252 77.2271 105.966C71.9742 103.679 67.2853 100.372 63.4632 96.2585C63.0316 95.8021 62.7796 95.2182 62.7498 94.6057C62.72 93.9932 62.9144 93.3898 63.3 92.8977C67.8341 87.1117 75.86 73.4482 77.116 68.997C76.52 67.9236 75.6194 67.0299 74.516 66.4169C74.0748 66.2217 73.6949 65.9206 73.414 65.5433C73.1331 65.166 72.961 64.7256 72.9146 64.2657L72.4625 59.9039C72.4187 59.2164 72.6573 58.5395 73.1282 58.0153C73.599 57.4911 74.2656 57.1604 74.988 57.0926C75.7104 57.0247 76.4324 57.225 77.0024 57.6514C77.5725 58.0778 77.9463 58.6972 78.0454 59.3795L78.3594 62.4126C80.2158 63.7653 81.686 65.5372 82.6361 67.5669C82.8245 67.9918 82.8937 68.4558 82.837 68.9136C82.2593 73.6389 74.1769 87.3262 69.2032 94.2444C80.8149 105.226 94.6937 104.225 95.3028 104.172C96.0346 104.124 96.757 104.349 97.3157 104.8C97.8744 105.251 98.2249 105.892 98.2922 106.585C98.3595 107.278 98.1382 107.968 97.6758 108.508C97.2134 109.048 96.5465 109.395 95.8178 109.475C95.6545 109.487 95.0077 109.535 93.9589 109.535Z" fill="#263238"/>
<path d="M184.423 215.166H176.887C176.455 215.166 176.028 215.071 175.64 214.889C175.253 214.707 174.915 214.443 174.653 214.116C174.391 213.79 174.212 213.41 174.13 213.007C174.048 212.604 174.065 212.189 174.18 211.793C176.146 205.096 177.113 199.643 177.835 191.11C175.173 179.193 172.667 168.342 172.642 168.235C172.506 167.553 172.655 166.848 173.058 166.27C173.461 165.691 174.086 165.284 174.8 165.136C175.514 164.988 176.261 165.11 176.881 165.476C177.502 165.842 177.948 166.423 178.124 167.096C178.124 167.204 180.711 178.335 183.406 190.383C183.463 190.634 183.48 190.891 183.456 191.146C182.828 198.809 182.005 204.106 180.523 209.845H184.404C185.125 209.877 185.805 210.172 186.303 210.667C186.801 211.162 187.079 211.821 187.079 212.505C187.079 213.19 186.801 213.848 186.303 214.344C185.805 214.839 185.125 215.134 184.404 215.166H184.423Z" fill="#263238"/>
<path d="M126.301 215.166H122.056C121.655 215.168 121.258 215.087 120.892 214.93C120.527 214.772 120.202 214.542 119.938 214.255C119.675 213.968 119.48 213.63 119.366 213.265C119.253 212.9 119.223 212.516 119.28 212.139C120.002 207.253 123.676 198.357 127.633 189.412C129.033 177.614 130.176 167.484 130.188 167.365C130.219 167.01 130.325 166.664 130.5 166.348C130.674 166.033 130.913 165.754 131.204 165.527C131.494 165.301 131.829 165.132 132.189 165.031C132.549 164.93 132.927 164.898 133.3 164.938C133.673 164.978 134.034 165.089 134.362 165.263C134.689 165.438 134.976 165.673 135.206 165.955C135.436 166.237 135.604 166.56 135.7 166.904C135.796 167.249 135.818 167.608 135.765 167.961C135.765 168.062 134.584 178.424 133.159 190.396C133.13 190.646 133.062 190.891 132.958 191.123C130.176 197.457 126.998 204.917 125.548 209.857H126.301C126.681 209.84 127.06 209.896 127.415 210.022C127.771 210.148 128.096 210.341 128.371 210.59C128.646 210.839 128.865 211.138 129.014 211.469C129.164 211.801 129.241 212.157 129.241 212.518C129.241 212.878 129.164 213.235 129.014 213.566C128.865 213.897 128.646 214.196 128.371 214.445C128.096 214.694 127.771 214.887 127.415 215.013C127.06 215.139 126.681 215.195 126.301 215.178V215.166Z" fill="#263238"/>
<path d="M128.744 33.3696L96.0501 64.397C94.4047 98.7852 94.5366 134.907 96.0501 172.358H204.167C202.025 124.033 201.824 77.5123 204.167 33.3696H128.744Z" fill="white"/>
<path d="M204.167 172.883H96.0505C95.9048 172.883 95.7648 172.83 95.6595 172.734C95.5542 172.639 95.4918 172.508 95.4853 172.37C93.9216 133.477 93.9216 97.1285 95.4853 64.3552C95.4938 64.2221 95.5542 64.0967 95.6549 64.0036L128.349 32.9762C128.401 32.927 128.462 32.888 128.53 32.8614C128.598 32.8348 128.671 32.8212 128.744 32.8213H204.167C204.243 32.8215 204.319 32.8364 204.389 32.865C204.459 32.8937 204.523 32.9356 204.575 32.9881C204.628 33.0402 204.668 33.102 204.694 33.1697C204.72 33.2374 204.731 33.3095 204.726 33.3814C202.471 75.8914 202.471 121.339 204.726 172.322C204.729 172.394 204.716 172.465 204.689 172.531C204.662 172.598 204.621 172.659 204.569 172.71C204.518 172.764 204.457 172.807 204.387 172.837C204.318 172.867 204.243 172.882 204.167 172.883ZM96.5843 171.816H203.583C201.36 121.25 201.354 76.1238 203.583 33.8879H128.977L96.5843 64.6114C95.0457 97.1702 95.0457 133.233 96.5843 171.816Z" fill="#263238"/>
<path d="M127.89 138.482L129.071 138.387C129.125 138.785 129.278 139.164 129.517 139.495C129.775 139.808 130.118 140.049 130.509 140.192C130.973 140.375 131.47 140.467 131.972 140.46C132.401 140.469 132.827 140.4 133.228 140.258C133.543 140.153 133.817 139.959 134.013 139.704C134.178 139.479 134.259 139.208 134.246 138.935C134.239 138.664 134.135 138.403 133.951 138.196C133.714 137.947 133.41 137.764 133.071 137.666C132.509 137.49 131.936 137.342 131.357 137.225C130.72 137.102 130.099 136.914 129.504 136.665C129.084 136.474 128.721 136.185 128.449 135.825C128.21 135.494 128.075 135.105 128.06 134.704C128.032 134.239 128.162 133.779 128.43 133.388C128.697 132.998 129.089 132.699 129.548 132.535C130.093 132.321 130.679 132.215 131.269 132.225C131.913 132.214 132.553 132.324 133.153 132.547C133.659 132.742 134.095 133.071 134.409 133.495C134.721 133.912 134.907 134.402 134.949 134.913L133.75 135.002C133.695 134.499 133.436 134.035 133.027 133.709C132.537 133.391 131.949 133.238 131.357 133.274C130.778 133.223 130.199 133.364 129.718 133.673C129.563 133.783 129.439 133.928 129.357 134.094C129.275 134.261 129.237 134.443 129.247 134.627C129.25 134.78 129.289 134.93 129.359 135.068C129.43 135.206 129.531 135.328 129.655 135.425C130.245 135.757 130.898 135.974 131.577 136.063C132.303 136.203 133.016 136.402 133.706 136.659C134.202 136.852 134.635 137.167 134.962 137.57C135.244 137.946 135.403 138.391 135.42 138.852C135.444 139.327 135.317 139.798 135.056 140.204C134.77 140.641 134.352 140.986 133.856 141.193C133.288 141.435 132.67 141.555 132.048 141.545C131.306 141.563 130.568 141.444 129.875 141.193C129.305 140.97 128.813 140.598 128.456 140.121C128.114 139.633 127.918 139.067 127.89 138.482Z" fill="#263238"/>
<path d="M141.744 139.275L142.956 139.418C142.836 140.03 142.488 140.579 141.977 140.968C141.418 141.358 140.735 141.553 140.042 141.522C139.594 141.54 139.147 141.471 138.728 141.32C138.309 141.168 137.927 140.937 137.606 140.64C136.951 139.97 136.591 139.087 136.601 138.173C136.488 137.261 136.762 136.344 137.361 135.623C137.645 135.32 137.996 135.082 138.39 134.924C138.783 134.767 139.208 134.694 139.634 134.711C140.061 134.7 140.485 134.774 140.88 134.928C141.275 135.082 141.631 135.313 141.926 135.605C142.581 136.289 142.938 137.183 142.925 138.107C142.925 138.173 142.925 138.268 142.925 138.399H137.8C137.84 139.008 138.1 139.584 138.535 140.032C138.723 140.221 138.95 140.372 139.202 140.474C139.453 140.577 139.725 140.629 139.998 140.628C140.387 140.64 140.768 140.527 141.079 140.306C141.409 140.037 141.642 139.677 141.744 139.275ZM137.832 137.488H141.669C141.627 137.04 141.453 136.612 141.167 136.254C140.986 136.05 140.76 135.887 140.505 135.777C140.249 135.667 139.971 135.612 139.691 135.617C139.445 135.61 139.2 135.651 138.972 135.738C138.744 135.825 138.538 135.956 138.366 136.123C138.006 136.496 137.814 136.988 137.832 137.494V137.488Z" fill="#263238"/>
<path d="M144.5 141.372L144.174 134.859H145.216L145.267 135.849C145.423 135.497 145.661 135.183 145.964 134.931C146.178 134.786 146.435 134.709 146.698 134.71C147.129 134.721 147.549 134.845 147.91 135.068L147.565 136.093C147.304 135.942 147.004 135.86 146.698 135.855C146.455 135.851 146.218 135.927 146.026 136.069C145.825 136.218 145.683 136.429 145.625 136.665C145.509 137.085 145.464 137.519 145.493 137.952L145.662 141.36L144.5 141.372Z" fill="#263238"/>
<path d="M150.83 141.372L147.891 134.859H149.147L150.818 138.762C151 139.185 151.17 139.62 151.327 140.073C151.414 139.734 151.534 139.317 151.697 138.834L153.022 134.859H154.222L151.948 141.372H150.83Z" fill="#263238"/>
<path d="M155.164 133.65L155.095 132.38H156.244L156.307 133.65H155.164ZM155.553 141.396L155.221 134.883H156.389L156.715 141.396H155.553Z" fill="#263238"/>
<path d="M162.845 138.989L164 139.132C163.952 139.801 163.641 140.428 163.127 140.889C162.608 141.322 161.934 141.549 161.243 141.521C160.815 141.535 160.388 141.464 159.991 141.314C159.593 141.163 159.232 140.935 158.932 140.645C158.285 139.957 157.934 139.064 157.946 138.142C157.901 137.515 157.995 136.886 158.223 136.295C158.418 135.792 158.793 135.37 159.284 135.103C159.777 134.836 160.336 134.698 160.904 134.704C161.578 134.674 162.243 134.864 162.788 135.241C163.296 135.623 163.645 136.163 163.774 136.766L162.656 136.933C162.558 136.55 162.339 136.205 162.028 135.944C161.742 135.725 161.384 135.609 161.017 135.616C160.751 135.605 160.486 135.653 160.243 135.757C160 135.86 159.785 136.016 159.617 136.212C159.228 136.77 159.068 137.444 159.165 138.107C159.144 138.791 159.365 139.462 159.793 140.014C159.969 140.205 160.188 140.357 160.433 140.46C160.678 140.563 160.944 140.614 161.212 140.609C161.627 140.621 162.031 140.478 162.336 140.21C162.655 139.874 162.835 139.441 162.845 138.989Z" fill="#263238"/>
<path d="M169.702 139.275L170.914 139.418C170.794 140.029 170.446 140.579 169.935 140.967C169.376 141.357 168.693 141.552 168 141.521C167.552 141.539 167.105 141.47 166.686 141.319C166.267 141.167 165.885 140.936 165.564 140.639C164.912 139.967 164.552 139.086 164.559 138.172C164.503 137.72 164.541 137.262 164.673 136.824C164.804 136.386 165.026 135.978 165.325 135.622C165.608 135.319 165.958 135.081 166.35 134.923C166.742 134.765 167.167 134.693 167.592 134.71C168.019 134.699 168.443 134.773 168.838 134.927C169.232 135.081 169.589 135.312 169.884 135.604C170.539 136.288 170.896 137.182 170.883 138.107C170.883 138.172 170.883 138.267 170.883 138.399H165.758C165.792 139.009 166.047 139.59 166.481 140.043C166.67 140.233 166.898 140.383 167.15 140.486C167.403 140.588 167.675 140.64 167.95 140.639C168.336 140.652 168.715 140.538 169.024 140.317C169.361 140.047 169.599 139.682 169.702 139.275ZM165.79 137.487H169.627C169.59 137.038 169.415 136.609 169.125 136.253C168.944 136.05 168.718 135.887 168.463 135.776C168.207 135.666 167.929 135.611 167.649 135.616C167.404 135.608 167.16 135.649 166.933 135.736C166.706 135.824 166.5 135.955 166.33 136.122C165.966 136.494 165.772 136.986 165.79 137.493V137.487Z" fill="#263238"/>
<path d="M122.031 153.939L121.981 152.98C121.765 153.328 121.454 153.615 121.08 153.81C120.707 154.005 120.285 154.101 119.858 154.088C119.464 154.089 119.073 154.014 118.709 153.868C118.395 153.749 118.117 153.559 117.899 153.314C117.708 153.069 117.573 152.789 117.503 152.491C117.427 152.152 117.385 151.807 117.378 151.46L117.171 147.426H118.339L118.521 151.037C118.524 151.438 118.569 151.837 118.653 152.229C118.729 152.505 118.905 152.748 119.149 152.914C119.413 153.081 119.724 153.166 120.041 153.159C120.384 153.161 120.721 153.073 121.014 152.902C121.303 152.75 121.526 152.505 121.642 152.211C121.764 151.797 121.807 151.365 121.768 150.936L121.592 147.45H122.754L123.08 153.963L122.031 153.939Z" fill="#263238"/>
<path d="M124.895 153.939L124.562 147.426H125.611L125.661 148.349C125.879 148.003 126.192 147.721 126.568 147.532C126.943 147.343 127.365 147.254 127.79 147.277C128.183 147.274 128.574 147.345 128.939 147.485C129.257 147.599 129.537 147.793 129.749 148.046C129.941 148.288 130.078 148.566 130.151 148.862C130.225 149.215 130.265 149.574 130.27 149.934L130.471 153.939H129.309L129.108 149.976C129.108 149.633 129.045 149.292 128.92 148.969C128.818 148.742 128.639 148.553 128.411 148.433C128.164 148.296 127.881 148.226 127.595 148.23C127.131 148.223 126.681 148.385 126.339 148.683C126.141 148.919 125.997 149.193 125.918 149.486C125.839 149.778 125.826 150.084 125.881 150.381L126.063 153.957L124.895 153.939Z" fill="#263238"/>
<path d="M136.701 153.141C136.347 153.455 135.937 153.706 135.489 153.88C135.087 154.024 134.662 154.097 134.233 154.095C133.595 154.13 132.965 153.943 132.462 153.57C132.257 153.404 132.091 153.199 131.975 152.968C131.86 152.737 131.796 152.485 131.79 152.23C131.768 151.927 131.831 151.625 131.972 151.354C132.106 151.101 132.302 150.883 132.543 150.716C132.794 150.557 133.069 150.436 133.36 150.358C133.699 150.281 134.043 150.225 134.39 150.192C135.086 150.132 135.774 150.004 136.443 149.81C136.443 149.661 136.443 149.566 136.443 149.524C136.451 149.349 136.422 149.175 136.357 149.011C136.293 148.847 136.194 148.697 136.066 148.571C135.689 148.344 135.255 148.215 134.809 148.197C134.363 148.18 133.919 148.273 133.523 148.47C133.233 148.722 133.046 149.064 132.995 149.435L131.846 149.292C131.901 148.889 132.058 148.504 132.305 148.172C132.559 147.863 132.904 147.632 133.297 147.51C133.794 147.351 134.317 147.275 134.842 147.284C135.33 147.269 135.816 147.336 136.28 147.48C136.589 147.559 136.87 147.716 137.092 147.936C137.314 148.156 137.467 148.429 137.536 148.726C137.598 149.062 137.634 149.403 137.643 149.745L137.718 151.217C137.732 151.869 137.789 152.519 137.888 153.165C137.956 153.441 138.071 153.704 138.227 153.946H137.008C136.853 153.698 136.749 153.425 136.701 153.141ZM136.475 150.674C135.867 150.885 135.234 151.026 134.591 151.091C134.248 151.128 133.911 151.202 133.586 151.312C133.402 151.386 133.248 151.513 133.146 151.675C133.046 151.833 132.997 152.016 133.008 152.2C133.015 152.341 133.053 152.479 133.12 152.606C133.187 152.732 133.282 152.844 133.397 152.933C133.698 153.147 134.07 153.253 134.446 153.231C134.859 153.238 135.266 153.141 135.627 152.951C135.952 152.779 136.21 152.511 136.361 152.188C136.483 151.83 136.528 151.454 136.493 151.079L136.475 150.674Z" fill="#263238"/>
<path d="M141.531 153.939L138.592 147.426H139.848L141.487 151.353C141.669 151.776 141.839 152.217 141.996 152.67C142.083 152.324 142.203 151.913 142.366 151.431L143.691 147.456H144.884L142.617 153.969L141.531 153.939Z" fill="#263238"/>
<path d="M150.687 153.141C150.334 153.455 149.923 153.706 149.475 153.88C149.074 154.024 148.648 154.097 148.219 154.095C147.583 154.129 146.956 153.943 146.454 153.57C146.246 153.406 146.078 153.201 145.961 152.97C145.844 152.739 145.781 152.486 145.776 152.23C145.754 151.927 145.817 151.625 145.958 151.354C146.093 151.101 146.289 150.883 146.53 150.716C146.782 150.556 147.06 150.435 147.352 150.358C147.689 150.281 148.031 150.225 148.376 150.192C149.072 150.132 149.761 150.004 150.429 149.81C150.429 149.661 150.429 149.566 150.429 149.524C150.439 149.349 150.411 149.174 150.346 149.01C150.281 148.846 150.181 148.697 150.053 148.571C149.675 148.344 149.242 148.215 148.795 148.197C148.349 148.18 147.905 148.273 147.509 148.47C147.219 148.722 147.032 149.064 146.982 149.435L145.832 149.292C145.887 148.889 146.044 148.504 146.291 148.172C146.545 147.863 146.891 147.632 147.283 147.51C147.781 147.351 148.303 147.275 148.828 147.284C149.316 147.269 149.803 147.336 150.266 147.48C150.576 147.559 150.857 147.716 151.078 147.936C151.3 148.156 151.453 148.429 151.522 148.726C151.588 149.062 151.623 149.403 151.629 149.745L151.704 151.217C151.71 151.86 151.758 152.503 151.849 153.141C151.912 153.417 152.025 153.681 152.182 153.922H150.963C150.824 153.679 150.731 153.415 150.687 153.141ZM150.461 150.674C149.853 150.885 149.22 151.026 148.577 151.091C148.234 151.128 147.897 151.202 147.572 151.312C147.389 151.386 147.235 151.513 147.132 151.675C147.032 151.833 146.984 152.016 146.994 152.2C147.001 152.341 147.039 152.479 147.106 152.606C147.173 152.732 147.268 152.844 147.384 152.933C147.685 153.147 148.057 153.253 148.432 153.231C148.845 153.238 149.252 153.141 149.613 152.951C149.939 152.779 150.197 152.511 150.348 152.188C150.475 151.832 150.52 151.454 150.48 151.079L150.461 150.674Z" fill="#263238"/>
<path d="M153.224 146.216L153.161 144.947H154.323L154.392 146.216H153.224ZM153.613 153.963L153.286 147.45H154.448L154.781 153.963H153.613Z" fill="#263238"/>
<path d="M156.527 153.939L156.068 144.947H157.236L157.689 153.939H156.527Z" fill="#263238"/>
<path d="M163.931 153.141C163.58 153.455 163.171 153.706 162.725 153.88C162.324 154.024 161.898 154.096 161.469 154.095C160.833 154.129 160.206 153.942 159.704 153.57C159.5 153.404 159.334 153.199 159.218 152.968C159.102 152.737 159.039 152.485 159.033 152.229C159.011 151.937 159.07 151.644 159.202 151.38C159.334 151.115 159.535 150.886 159.786 150.716C160.036 150.555 160.312 150.435 160.603 150.358C160.942 150.281 161.286 150.225 161.632 150.191C162.329 150.131 163.017 150.003 163.686 149.81C163.686 149.661 163.686 149.566 163.686 149.524C163.694 149.349 163.665 149.175 163.6 149.011C163.535 148.847 163.436 148.697 163.309 148.571C162.922 148.298 162.446 148.165 161.965 148.195C161.545 148.165 161.125 148.261 160.766 148.469C160.475 148.723 160.287 149.064 160.232 149.435L159.089 149.292C159.144 148.89 159.299 148.506 159.541 148.171C159.799 147.864 160.146 147.634 160.54 147.51C161.037 147.351 161.56 147.275 162.085 147.284C162.572 147.269 163.059 147.336 163.523 147.48C163.832 147.558 164.113 147.716 164.335 147.936C164.556 148.155 164.71 148.429 164.779 148.726C164.841 149.062 164.877 149.403 164.885 149.745L164.961 151.216C164.975 151.869 165.032 152.519 165.13 153.165C165.197 153.44 165.309 153.704 165.463 153.946H164.251C164.094 153.698 163.985 153.425 163.931 153.141ZM163.711 150.674C163.103 150.885 162.471 151.025 161.827 151.091C161.484 151.128 161.147 151.202 160.822 151.312C160.638 151.384 160.483 151.512 160.383 151.675C160.282 151.833 160.234 152.016 160.245 152.2C160.25 152.341 160.288 152.48 160.355 152.606C160.422 152.733 160.517 152.844 160.634 152.933C160.935 153.147 161.307 153.253 161.683 153.23C162.095 153.238 162.503 153.141 162.863 152.95C163.189 152.78 163.445 152.512 163.592 152.188C163.719 151.832 163.764 151.454 163.724 151.079L163.711 150.674Z" fill="#263238"/>
<path d="M167.931 153.939H166.851L166.399 144.947H167.548L167.711 148.153C167.917 147.875 168.193 147.65 168.513 147.497C168.832 147.345 169.187 147.269 169.545 147.277C169.963 147.273 170.377 147.357 170.757 147.521C171.131 147.672 171.463 147.905 171.724 148.201C171.995 148.516 172.207 148.873 172.352 149.255C172.513 149.683 172.605 150.131 172.622 150.584C172.738 151.505 172.472 152.432 171.881 153.17C171.636 153.461 171.324 153.695 170.969 153.854C170.614 154.013 170.226 154.093 169.834 154.088C169.448 154.094 169.067 154.01 168.725 153.841C168.383 153.672 168.091 153.426 167.874 153.123L167.931 153.939ZM167.749 150.632C167.74 151.22 167.885 151.802 168.17 152.324C168.323 152.582 168.546 152.796 168.815 152.946C169.084 153.095 169.39 153.175 169.702 153.176C169.953 153.176 170.201 153.119 170.425 153.01C170.648 152.901 170.842 152.744 170.989 152.551C171.376 151.998 171.54 151.332 171.454 150.674C171.469 149.997 171.248 149.336 170.826 148.791C170.665 148.605 170.463 148.455 170.234 148.352C170.005 148.249 169.755 148.195 169.501 148.195C169.249 148.197 169.001 148.255 168.778 148.365C168.554 148.474 168.361 148.633 168.214 148.826C167.838 149.357 167.673 149.997 167.749 150.632Z" fill="#263238"/>
<path d="M174.198 153.939L173.74 144.947H174.908L175.36 153.939H174.198Z" fill="#263238"/>
<path d="M181.76 151.842L182.972 151.985C182.849 152.595 182.502 153.144 181.993 153.534C181.434 153.924 180.751 154.119 180.058 154.089C179.611 154.106 179.164 154.036 178.745 153.885C178.326 153.733 177.944 153.502 177.622 153.207C176.967 152.537 176.607 151.654 176.617 150.74C176.56 150.287 176.598 149.828 176.728 149.39C176.859 148.951 177.079 148.541 177.377 148.183C177.662 147.883 178.014 147.647 178.407 147.49C178.8 147.334 179.224 147.261 179.65 147.278C180.076 147.267 180.5 147.341 180.894 147.494C181.289 147.647 181.646 147.875 181.942 148.166C182.595 148.851 182.952 149.745 182.941 150.668C182.941 150.734 182.941 150.835 182.941 150.966H177.817C177.85 151.577 178.105 152.158 178.539 152.611C178.729 152.795 178.957 152.94 179.209 153.038C179.46 153.135 179.73 153.182 180.002 153.177C180.389 153.188 180.769 153.077 181.082 152.861C181.411 152.594 181.648 152.239 181.76 151.842ZM177.848 150.055H181.685C181.643 149.607 181.469 149.179 181.183 148.821C181.002 148.617 180.776 148.454 180.521 148.344C180.265 148.234 179.987 148.179 179.707 148.183C179.461 148.177 179.216 148.219 178.987 148.308C178.759 148.396 178.553 148.528 178.382 148.696C178.025 149.066 177.834 149.553 177.848 150.055Z" fill="#263238"/>
<path d="M184.781 157.586H172.987C172.876 157.586 172.769 157.544 172.69 157.469C172.611 157.394 172.566 157.293 172.566 157.187C172.566 157.135 172.577 157.083 172.599 157.035C172.62 156.987 172.651 156.943 172.69 156.907C172.729 156.87 172.776 156.841 172.827 156.822C172.878 156.802 172.932 156.793 172.987 156.794H184.781C184.836 156.793 184.891 156.802 184.942 156.822C184.993 156.841 185.039 156.87 185.078 156.907C185.117 156.943 185.148 156.987 185.17 157.035C185.191 157.083 185.202 157.135 185.202 157.187C185.202 157.239 185.191 157.291 185.17 157.34C185.149 157.388 185.118 157.432 185.079 157.469C185.039 157.506 184.993 157.536 184.942 157.556C184.891 157.576 184.836 157.586 184.781 157.586Z" fill="#03989E"/>
<path d="M168.101 157.586H115.424C115.313 157.586 115.206 157.544 115.127 157.469C115.048 157.394 115.003 157.293 115.003 157.187C115.003 157.135 115.014 157.083 115.036 157.035C115.057 156.987 115.088 156.943 115.127 156.907C115.166 156.87 115.213 156.841 115.264 156.822C115.315 156.802 115.369 156.793 115.424 156.794H168.088C168.143 156.793 168.198 156.802 168.249 156.822C168.3 156.841 168.346 156.87 168.385 156.907C168.425 156.943 168.456 156.987 168.477 157.035C168.498 157.083 168.509 157.135 168.509 157.187C168.509 157.291 168.466 157.39 168.39 157.465C168.314 157.539 168.21 157.583 168.101 157.586Z" fill="#03989E"/>
<path d="M135.068 97.8376C134.943 95.2395 133.392 93.1897 131.596 93.2493C129.8 93.3089 128.456 95.46 128.569 98.0581C128.682 100.656 130.245 102.706 132.041 102.64C133.838 102.575 135.194 100.43 135.068 97.8376Z" fill="#03989E"/>
<path d="M172.981 97.0211C172.855 94.429 171.304 92.3792 169.508 92.4388C167.712 92.4984 166.368 94.6495 166.481 97.2475C166.594 99.8455 168.164 101.895 169.954 101.83C171.743 101.764 173.106 99.6191 172.981 97.0211Z" fill="#03989E"/>
<path d="M144.532 108.45C147.429 107.423 150.515 106.962 153.605 107.095C156.695 107.228 159.724 107.953 162.511 109.224C162.604 109.273 162.685 109.338 162.751 109.417C162.816 109.495 162.865 109.585 162.894 109.682C162.922 109.778 162.93 109.879 162.918 109.979C162.905 110.078 162.871 110.174 162.819 110.261C162.712 110.436 162.538 110.565 162.332 110.62C162.127 110.674 161.907 110.65 161.72 110.553C161.626 110.505 152.677 105.929 141.995 111.149C141.804 111.24 141.584 111.258 141.38 111.198C141.176 111.138 141.004 111.005 140.902 110.827C140.853 110.739 140.823 110.642 140.814 110.542C140.805 110.442 140.817 110.342 140.849 110.246C140.881 110.151 140.933 110.063 141.001 109.987C141.07 109.91 141.153 109.848 141.247 109.802C142.308 109.281 143.406 108.829 144.532 108.45Z" fill="#03989E"/>
<path d="M129.642 73.4961C129.921 73.5034 130.193 73.5772 130.433 73.7106C130.801 73.9169 131.067 74.2522 131.175 74.6437C131.284 75.0353 131.225 75.4516 131.011 75.8022C129.761 77.9156 127.993 79.7118 125.856 81.0386C123.718 82.3653 121.275 83.1834 118.734 83.4235C118.307 83.4397 117.89 83.2956 117.574 83.0224C117.257 82.7491 117.067 82.3688 117.045 81.9636C117.035 81.764 117.068 81.5646 117.14 81.3769C117.212 81.1892 117.322 81.0167 117.464 80.8695C117.607 80.7223 117.778 80.6031 117.969 80.5189C118.16 80.4346 118.366 80.3869 118.577 80.3785C118.822 80.3785 124.618 80.0329 128.223 74.2588C128.364 74.0214 128.571 73.825 128.821 73.6906C129.071 73.5562 129.355 73.489 129.642 73.4961Z" fill="#03989E"/>
<path d="M167.58 72.6197C167.842 72.5707 168.113 72.5842 168.368 72.6591C168.624 72.734 168.856 72.8679 169.043 73.0488C174.067 77.8158 179.807 76.8564 180.046 76.8147C180.461 76.7437 180.889 76.8282 181.241 77.0504C181.592 77.2726 181.839 77.6153 181.93 78.0065C181.972 78.2022 181.972 78.4038 181.932 78.5998C181.891 78.7958 181.811 78.9823 181.694 79.1484C181.577 79.3146 181.427 79.4572 181.252 79.568C181.077 79.6788 180.88 79.7557 180.674 79.7941C180.36 79.8478 173.05 81.1706 166.726 75.1761C166.519 74.9821 166.372 74.7383 166.301 74.471C166.23 74.2037 166.237 73.923 166.322 73.6593C166.407 73.3956 166.566 73.1588 166.782 72.9745C166.998 72.7903 167.263 72.6655 167.548 72.6138L167.58 72.6197Z" fill="#03989E"/>
<path opacity="0.2" d="M202.541 89.2984L197.95 89.7036C197.156 89.774 196.362 89.5672 195.717 89.1218C195.072 88.6764 194.62 88.0232 194.446 87.2844L188.085 60.2434C187.901 59.4582 188.045 58.6361 188.486 57.9495C188.928 57.2628 189.632 56.7652 190.452 56.5609L202.755 53.498L202.541 89.2984Z" fill="black"/>
<path opacity="0.2" d="M131.752 67.1492C128.556 58.8725 125.359 45.6261 128.732 33.3569L96.0381 64.3843C105.289 67.3339 120.021 68.5912 131.752 67.1492Z" fill="black"/>
<path d="M128.744 64.3843C125.158 54.3378 126.621 40.6803 128.744 33.3569L96.0503 64.3843C105.948 66.0945 117.007 65.8204 128.744 64.3843Z" fill="white"/>
<path d="M111.029 66.0953C105.977 66.1309 100.932 65.732 95.9567 64.9035C95.8557 64.8878 95.7612 64.8457 95.684 64.782C95.6067 64.7183 95.5495 64.6356 95.5189 64.5429C95.4883 64.4502 95.4855 64.3513 95.5106 64.2571C95.5358 64.163 95.588 64.0773 95.6615 64.0097L128.355 32.9823C128.442 32.8982 128.557 32.844 128.68 32.8284C128.803 32.8128 128.928 32.8366 129.036 32.8961C129.143 32.9556 129.226 33.0473 129.273 33.1568C129.319 33.2663 129.325 33.3873 129.291 33.5007C127.319 40.3176 125.68 54.1181 129.291 64.2123C129.316 64.2873 129.324 64.3664 129.314 64.4445C129.304 64.5226 129.277 64.5978 129.234 64.6652C129.191 64.7321 129.133 64.7888 129.063 64.8312C128.993 64.8735 128.915 64.9003 128.832 64.9095C122.931 65.6654 116.984 66.0615 111.029 66.0953ZM97.2127 64.0335C105.904 65.3981 115.996 65.3683 127.985 63.9382C125.027 55.0358 125.699 43.2552 127.683 35.0977L97.2127 64.0335Z" fill="#263238"/>
<path d="M241.088 109.707C240.881 109.707 240.681 109.642 240.517 109.523C240.354 109.403 240.236 109.235 240.184 109.046L228.666 67.4058C228.603 67.1775 228.638 66.9346 228.763 66.7307C228.889 66.5267 229.094 66.3784 229.335 66.3183C229.576 66.2583 229.832 66.2914 230.046 66.4104C230.261 66.5294 230.418 66.7246 230.481 66.953L241.999 108.593C242.03 108.706 242.037 108.824 242.02 108.94C242.003 109.055 241.962 109.167 241.9 109.268C241.838 109.368 241.755 109.456 241.656 109.527C241.558 109.597 241.446 109.648 241.327 109.677C241.249 109.699 241.169 109.71 241.088 109.707Z" fill="#263238"/>
<path d="M262.54 49.8918L261.929 50.041L262.795 53.2263L263.405 53.0771L262.54 49.8918Z" fill="#03989E"/>
<path d="M260.562 45.3402L258.144 36.5987C257.815 35.4152 257.005 34.4038 255.892 33.7861C254.778 33.1684 253.452 32.9949 252.203 33.3035L245.879 34.8766L245.722 34.2807L252.046 32.7016C253.454 32.3548 254.95 32.5513 256.206 33.2482C257.462 33.945 258.375 35.0854 258.747 36.4199L261.171 45.1674L260.562 45.3402Z" fill="#03989E"/>
<path d="M252.606 34.7615L192.73 49.6662C190.972 50.1038 189.921 51.8107 190.382 53.4787L197.959 80.8853C198.421 82.5533 200.22 83.5507 201.978 83.1132L261.853 68.2085C263.611 67.7709 264.662 66.064 264.201 64.396L256.624 36.9894C256.163 35.3213 254.364 34.3239 252.606 34.7615Z" fill="#03989E"/>
<path d="M249.625 66.6873L211.848 76.091C210.09 76.5286 209.039 78.2355 209.5 79.9035L211.868 88.4684C212.33 90.1364 214.129 91.1339 215.886 90.6963L253.663 81.2926C255.421 80.855 256.473 79.1481 256.011 77.4801L253.643 68.9151C253.182 67.2471 251.383 66.2497 249.625 66.6873Z" fill="#03989E"/>
<path d="M215.371 79.2161L220.539 77.9409L220.884 79.2042L217.65 80.0027L217.908 80.9441L220.928 80.2053L221.261 81.397L218.259 82.1419L218.58 83.3038L221.908 82.4875L222.272 83.8282L217.016 85.1272L215.371 79.2161Z" fill="white"/>
<path d="M223.322 83.5772L221.695 77.6542L224.91 76.8617C225.367 76.7324 225.841 76.6681 226.317 76.671C226.654 76.6879 226.974 76.8117 227.228 77.0226C227.478 77.2479 227.662 77.5314 227.761 77.845C227.86 78.1586 227.871 78.4913 227.793 78.8102C227.713 79.088 227.557 79.3408 227.341 79.5431C227.156 79.7079 226.944 79.8428 226.713 79.9424C226.887 79.9349 227.062 79.9606 227.226 80.0179C227.389 80.0752 227.54 80.163 227.667 80.2761C227.801 80.3659 227.927 80.4655 228.044 80.574L229.445 82.0577L227.265 82.6L225.752 81.0388C225.624 80.8854 225.464 80.7595 225.281 80.6693C225.113 80.6187 224.933 80.6187 224.766 80.6693L224.596 80.711L225.256 83.0946L223.322 83.5772ZM224.289 79.5729L225.105 79.3763C225.275 79.3207 225.439 79.2509 225.595 79.1677C225.713 79.1154 225.806 79.0214 225.852 78.9055C225.917 78.7673 225.924 78.611 225.871 78.4683C225.819 78.3255 225.711 78.2071 225.57 78.1369C225.323 78.0624 225.057 78.0624 224.81 78.1369L223.962 78.3454L224.289 79.5729Z" fill="white"/>
<path d="M230.098 81.9033L228.465 75.9803L231.68 75.1877C232.137 75.0613 232.611 74.9971 233.087 74.9971C233.421 75.0143 233.74 75.1382 233.991 75.3486C234.271 75.5807 234.465 75.892 234.544 76.2365C234.632 76.5327 234.632 76.8461 234.544 77.1422C234.462 77.4162 234.309 77.6662 234.098 77.8692C233.911 78.0327 233.699 78.1692 233.47 78.2744C233.66 78.2762 233.849 78.3064 234.029 78.3638C234.169 78.4295 234.302 78.5094 234.425 78.6021C234.557 78.6916 234.68 78.7912 234.795 78.9001L236.202 80.3898L234.023 80.9261L232.497 79.3708C232.368 79.2157 232.205 79.0896 232.019 79.0014C231.854 78.9508 231.676 78.9508 231.511 79.0014L231.341 79.0431L232 81.4266L230.098 81.9033ZM231.071 77.905L231.887 77.7024C232.054 77.6452 232.216 77.5755 232.371 77.4938C232.431 77.4688 232.485 77.4328 232.531 77.3878C232.576 77.3428 232.611 77.2897 232.635 77.2316C232.697 77.0941 232.703 76.9392 232.651 76.7978C232.598 76.6565 232.492 76.539 232.352 76.4689C232.104 76.3885 231.834 76.3885 231.586 76.4689L230.744 76.6774L231.071 77.905Z" fill="white"/>
<path d="M235.655 77.3746C235.499 76.9733 235.439 76.5442 235.478 76.1182C235.518 75.6922 235.656 75.2798 235.884 74.9106C236.111 74.5414 236.422 74.2247 236.794 73.9831C237.166 73.7415 237.59 73.581 238.035 73.5133C238.464 73.3801 238.916 73.3294 239.366 73.3642C239.815 73.3989 240.253 73.5185 240.654 73.7159C241.026 73.9418 241.346 74.2366 241.595 74.5826C241.845 74.9287 242.018 75.3189 242.104 75.73C242.286 76.31 242.32 76.9225 242.205 77.5176C242.086 78.0152 241.812 78.4677 241.42 78.8166C240.956 79.2103 240.394 79.4852 239.787 79.6151C239.192 79.7824 238.565 79.8191 237.953 79.7223C237.42 79.6195 236.932 79.3661 236.553 78.9954C236.108 78.5395 235.799 77.9804 235.655 77.3746ZM237.583 76.9098C237.665 77.3723 237.913 77.7935 238.286 78.1016C238.443 78.1951 238.619 78.2573 238.802 78.2846C238.985 78.3118 239.172 78.3035 239.352 78.26C239.532 78.2165 239.7 78.1389 239.847 78.0317C239.994 77.9246 240.117 77.7902 240.208 77.6368C240.366 77.1596 240.353 76.6461 240.17 76.1769C240.09 75.7331 239.845 75.3313 239.479 75.0447C239.324 74.9462 239.148 74.8816 238.963 74.8559C238.779 74.8301 238.59 74.8437 238.412 74.8957C238.232 74.9333 238.065 75.0091 237.921 75.1176C237.777 75.226 237.662 75.3641 237.583 75.5214C237.414 75.9704 237.414 76.4608 237.583 76.9098Z" fill="white"/>
<path d="M243.995 78.4715L242.368 72.5544L245.584 71.7619C246.039 71.6293 246.514 71.5649 246.99 71.5712C247.327 71.5867 247.649 71.7107 247.901 71.9228C248.152 72.1473 248.337 72.431 248.435 72.745C248.533 73.0591 248.542 73.3922 248.46 73.7104C248.378 73.9862 248.225 74.2382 248.014 74.4434C247.829 74.6082 247.617 74.743 247.386 74.8426C247.578 74.8489 247.769 74.881 247.951 74.9379C248.09 75.0004 248.221 75.0784 248.341 75.1703C248.474 75.2599 248.598 75.3617 248.711 75.4742L250.118 76.958L247.939 77.5002L246.413 75.945C246.282 75.7902 246.12 75.6624 245.935 75.5696C245.77 75.5217 245.593 75.5217 245.427 75.5696L245.257 75.6113L245.917 77.9948L243.995 78.4715ZM244.962 74.4731L245.778 74.2765C245.947 74.2182 246.11 74.1485 246.268 74.068C246.385 74.0137 246.477 73.9203 246.526 73.8058C246.59 73.6675 246.597 73.5112 246.544 73.3685C246.492 73.2258 246.384 73.1073 246.243 73.0371C245.996 72.9598 245.73 72.9598 245.483 73.0371L244.635 73.2456L244.962 74.4731Z" fill="white"/>
<path d="M200.669 55.5599L213.669 52.3184L214.812 56.4895L206.02 58.6823L206.328 61.6081C206.833 61.1993 207.383 60.8418 207.967 60.5415C208.509 60.2669 209.082 60.0511 209.675 59.8979C210.544 59.6452 211.458 59.5593 212.363 59.6452C213.267 59.7311 214.145 59.9872 214.944 60.3985C215.7 60.8007 216.36 61.3481 216.881 62.0057C217.403 62.6634 217.774 63.4168 217.971 64.2181C218.298 65.4381 218.298 66.7163 217.971 67.9363C217.665 69.1737 216.973 70.2949 215.986 71.1541C214.774 72.134 213.327 72.8173 211.772 73.1443C210.653 73.4417 209.499 73.6038 208.337 73.627C207.429 73.6378 206.527 73.482 205.681 73.1681C204.941 72.8843 204.259 72.4811 203.665 71.9764C203.031 71.4061 202.487 70.7518 202.051 70.0338L207.433 68.0793C207.707 68.7836 208.225 69.3784 208.903 69.7657C209.495 70.0757 210.192 70.1527 210.843 69.9802C211.205 69.8982 211.544 69.7392 211.832 69.5153C212.12 69.2913 212.351 69.0081 212.507 68.6871C212.862 67.8434 212.887 66.9068 212.576 66.0474C212.411 65.1504 211.901 64.3435 211.144 63.7831C210.818 63.5884 210.45 63.4631 210.068 63.4158C209.685 63.3684 209.296 63.4002 208.928 63.509C208.393 63.6439 207.901 63.9018 207.496 64.2598C207.102 64.6243 206.783 65.0545 206.554 65.529L201.712 66.0534L200.669 55.5599Z" fill="white"/>
<path d="M219.378 60.8097C218.39 57.2582 218.375 54.6026 219.334 52.8428C220.293 51.083 222.152 49.8614 224.911 49.1781C226.012 48.8696 227.163 48.7525 228.308 48.8325C229.155 48.9064 229.977 49.1414 230.726 49.5237C231.359 49.8557 231.933 50.28 232.428 50.781C232.921 51.3072 233.343 51.8898 233.684 52.5151C234.451 53.8486 235.04 55.2678 235.436 56.7398C236.378 60.1284 236.462 62.7622 235.687 64.6412C234.913 66.5202 233.045 67.8252 230.085 68.5561C228.717 68.9544 227.268 69.0382 225.859 68.8004C224.682 68.5507 223.597 68.0053 222.719 67.2213C221.933 66.487 221.294 65.6228 220.835 64.671C220.213 63.434 219.725 62.1402 219.378 60.8097ZM224.81 59.469C225.467 61.8525 226.139 63.4236 226.826 64.1824C227.073 64.5202 227.421 64.7798 227.825 64.9275C228.23 65.0752 228.671 65.1042 229.093 65.0106C229.622 64.8762 230.074 64.5484 230.349 64.0989C230.687 63.4915 230.833 62.8047 230.77 62.1206C230.658 60.8286 230.408 59.5508 230.023 58.307C229.34 55.8281 228.658 54.2153 227.975 53.4685C227.712 53.1274 227.346 52.8699 226.926 52.7295C226.506 52.5892 226.051 52.5726 225.62 52.6819C225.19 52.783 224.803 53.0099 224.516 53.3307C224.228 53.6515 224.055 54.0499 224.019 54.4695C223.918 55.4527 224.157 57.1152 224.81 59.469Z" fill="white"/>
<path d="M241.978 51.049L236.558 51.4601C236.507 49.932 237.035 48.4371 238.047 47.2473C239.039 46.1091 240.653 45.257 242.895 44.7029C245.47 44.0593 247.456 44.0593 248.855 44.7029C249.51 44.9732 250.091 45.3823 250.553 45.8987C251.016 46.4152 251.348 47.0253 251.524 47.6823C251.749 48.4674 251.716 49.2989 251.429 50.0658C251.081 50.9269 250.521 51.6969 249.797 52.3122C250.444 52.2837 251.092 52.348 251.718 52.5029C252.459 52.712 253.128 53.1025 253.659 53.6351C254.228 54.2311 254.628 54.9551 254.821 55.7385C255.121 56.84 255.11 57.9971 254.789 59.0933C254.466 60.2507 253.784 61.2889 252.83 62.0727C251.598 63.0124 250.153 63.669 248.61 63.9915C247.187 64.4018 245.696 64.5554 244.214 64.4443C243.117 64.3243 242.071 63.9408 241.174 63.33C240.22 62.6507 239.423 61.7928 238.832 60.8095L244.113 58.7597C244.432 59.539 244.99 60.2095 245.715 60.6843C246.294 60.9748 246.97 61.039 247.599 60.8631C247.947 60.7826 248.272 60.6311 248.552 60.4191C248.831 60.2071 249.059 59.9397 249.219 59.6356C249.576 58.9434 249.637 58.1468 249.388 57.413C249.237 56.6696 248.787 56.0114 248.132 55.5777C247.818 55.3962 247.467 55.2809 247.102 55.2398C246.736 55.1987 246.366 55.2326 246.016 55.3393C245.422 55.5189 244.854 55.7692 244.327 56.0842L243.586 52.3063C243.831 52.2827 244.074 52.2449 244.314 52.1931C244.647 52.1194 244.96 51.9841 245.237 51.7949C245.514 51.6057 245.749 51.3664 245.928 51.0907C246.104 50.8401 246.221 50.5568 246.272 50.2599C246.322 49.9629 246.306 49.6591 246.223 49.3686C246.166 49.1157 246.055 48.8764 245.898 48.6654C245.74 48.4544 245.539 48.276 245.306 48.1411C245.061 48.0148 244.79 47.937 244.512 47.9124C244.233 47.8878 243.952 47.917 243.686 47.9981C243.395 48.0586 243.12 48.1736 242.876 48.3362C242.632 48.4989 242.425 48.706 242.267 48.9455C241.941 49.6007 241.84 50.3364 241.978 51.049Z" fill="white"/>
</svg>
