<svg width="96" height="87" viewBox="0 0 96 87" fill="none" xmlns="http://www.w3.org/2000/svg">
<g opacity="0.3">
<path d="M58.4828 86.137H37.5376C33.4956 86.137 30.1885 83.1694 30.1885 79.5425V70.417H35.0845V79.5425C35.0845 80.7545 36.1869 81.7437 37.5376 81.7437H58.4828C59.8336 81.7437 60.936 80.7545 60.936 79.5425V43.0916H65.8371V79.5425C65.8371 83.1694 62.5507 86.137 58.4828 86.137Z" fill="#A6A6A6"/>
<mask id="mask0_320_4284" style="mask-type:luminance" maskUnits="userSpaceOnUse" x="30" y="0" width="36" height="44">
<path d="M30.1416 -5.34058e-05H65.9145V43.6165H30.1416V-5.34058e-05Z" fill="white"/>
</mask>
<g mask="url(#mask0_320_4284)">
<path d="M35.0845 43.0918H30.1885V6.64096C30.1885 3.00934 33.4956 0.0418205 37.5376 0.0418205H58.4828C62.53 0.0418205 65.8371 3.00934 65.8371 6.64096V15.7618H60.936V6.64096C60.936 5.42887 59.8336 4.4397 58.4828 4.4397H37.5376C36.1869 4.4397 35.0845 5.42887 35.0845 6.64096V43.0918Z" fill="#03989E"/>
</g>
<mask id="mask1_320_4284" style="mask-type:luminance" maskUnits="userSpaceOnUse" x="0" y="26" width="49" height="35">
<path d="M0 26.9725H48.6909V60.2607H0V26.9725Z" fill="white"/>
</mask>
<g mask="url(#mask1_320_4284)">
<path d="M48.0235 59.0949H7.40122C3.35918 59.0949 0.046875 56.1274 0.046875 52.5005V33.7015C0.046875 30.0745 3.35918 27.107 7.40122 27.107H17.5659V31.5049H7.40122C6.05042 31.5049 4.94805 32.4941 4.94805 33.7015V52.5005C4.94805 53.7079 6.05042 54.7017 7.40122 54.7017H48.0235V59.0949Z" fill="#03989E"/>
</g>
<path d="M88.6457 59.095H78.4811V54.7017H88.6457C89.9965 54.7017 91.0989 53.7079 91.0989 52.5005V33.7015C91.0989 32.4941 89.9965 31.5049 88.6457 31.5049H48.0234V27.107H88.6457C92.6878 27.107 96.0001 30.0745 96.0001 33.7015V52.5005C96.0001 56.1274 92.6878 59.095 88.6457 59.095Z" fill="#A6A6A6"/>
</g>
</svg>
